<svg id="visual" viewBox="0 0 960 30" width="960" height="30" xmlns="http://www.w3.org/2000/svg" xmlns:xlink="http://www.w3.org/1999/xlink" version="1.1"><path d="M0 24L7 24.5C14 25 28 26 41.8 26C55.7 26 69.3 25 83.2 23.8C97 22.7 111 21.3 125 21.8C139 22.3 153 24.7 167 24.7C181 24.7 195 22.3 208.8 22.5C222.7 22.7 236.3 25.3 250.2 26.3C264 27.3 278 26.7 292 25.3C306 24 320 22 334 21.2C348 20.3 362 20.7 375.8 20.7C389.7 20.7 403.3 20.3 417.2 20.5C431 20.7 445 21.3 459 22.5C473 23.7 487 25.3 501 25.5C515 25.7 529 24.3 542.8 24C556.7 23.7 570.3 24.3 584.2 24.7C598 25 612 25 626 24.7C640 24.3 654 23.7 668 23.5C682 23.3 696 23.7 709.8 24.3C723.7 25 737.3 26 751.2 26.5C765 27 779 27 793 26.8C807 26.7 821 26.3 835 26.2C849 26 863 26 876.8 24.8C890.7 23.7 904.3 21.3 918.2 21.2C932 21 946 23 953 24L960 25L960 0L953 0C946 0 932 0 918.2 0C904.3 0 890.7 0 876.8 0C863 0 849 0 835 0C821 0 807 0 793 0C779 0 765 0 751.2 0C737.3 0 723.7 0 709.8 0C696 0 682 0 668 0C654 0 640 0 626 0C612 0 598 0 584.2 0C570.3 0 556.7 0 542.8 0C529 0 515 0 501 0C487 0 473 0 459 0C445 0 431 0 417.2 0C403.3 0 389.7 0 375.8 0C362 0 348 0 334 0C320 0 306 0 292 0C278 0 264 0 250.2 0C236.3 0 222.7 0 208.8 0C195 0 181 0 167 0C153 0 139 0 125 0C111 0 97 0 83.2 0C69.3 0 55.7 0 41.8 0C28 0 14 0 7 0L0 0Z" fill="#ec4899"></path><path d="M0 20L7 19.3C14 18.7 28 17.3 41.8 16.5C55.7 15.7 69.3 15.3 83.2 16C97 16.7 111 18.3 125 19.5C139 20.7 153 21.3 167 22C181 22.7 195 23.3 208.8 22.7C222.7 22 236.3 20 250.2 19C264 18 278 18 292 18C306 18 320 18 334 18.2C348 18.3 362 18.7 375.8 19.2C389.7 19.7 403.3 20.3 417.2 20.7C431 21 445 21 459 20.5C473 20 487 19 501 18.3C515 17.7 529 17.3 542.8 17.7C556.7 18 570.3 19 584.2 19.5C598 20 612 20 626 19.5C640 19 654 18 668 17.7C682 17.3 696 17.7 709.8 18C723.7 18.3 737.3 18.7 751.2 19.2C765 19.7 779 20.3 793 20.8C807 21.3 821 21.7 835 20.8C849 20 863 18 876.8 17.8C890.7 17.7 904.3 19.3 918.2 20.5C932 21.7 946 22.3 953 22.7L960 23L960 0L953 0C946 0 932 0 918.2 0C904.3 0 890.7 0 876.8 0C863 0 849 0 835 0C821 0 807 0 793 0C779 0 765 0 751.2 0C737.3 0 723.7 0 709.8 0C696 0 682 0 668 0C654 0 640 0 626 0C612 0 598 0 584.2 0C570.3 0 556.7 0 542.8 0C529 0 515 0 501 0C487 0 473 0 459 0C445 0 431 0 417.2 0C403.3 0 389.7 0 375.8 0C362 0 348 0 334 0C320 0 306 0 292 0C278 0 264 0 250.2 0C236.3 0 222.7 0 208.8 0C195 0 181 0 167 0C153 0 139 0 125 0C111 0 97 0 83.2 0C69.3 0 55.7 0 41.8 0C28 0 14 0 7 0L0 0Z" fill="#e770bd"></path><path d="M0 12L7 12.7C14 13.3 28 14.7 41.8 16C55.7 17.3 69.3 18.7 83.2 18.3C97 18 111 16 125 15.5C139 15 153 16 167 15.7C181 15.3 195 13.7 208.8 13.3C222.7 13 236.3 14 250.2 14.3C264 14.7 278 14.3 292 14.5C306 14.7 320 15.3 334 16.2C348 17 362 18 375.8 17.7C389.7 17.3 403.3 15.7 417.2 15.2C431 14.7 445 15.3 459 15.2C473 15 487 14 501 14.3C515 14.7 529 16.3 542.8 16.5C556.7 16.7 570.3 15.3 584.2 15.7C598 16 612 18 626 18.7C640 19.3 654 18.7 668 18.3C682 18 696 18 709.8 17C723.7 16 737.3 14 751.2 13.2C765 12.3 779 12.7 793 12.5C807 12.3 821 11.7 835 11.5C849 11.3 863 11.7 876.8 12.3C890.7 13 904.3 14 918.2 14.8C932 15.7 946 16.3 953 16.7L960 17L960 0L953 0C946 0 932 0 918.2 0C904.3 0 890.7 0 876.8 0C863 0 849 0 835 0C821 0 807 0 793 0C779 0 765 0 751.2 0C737.3 0 723.7 0 709.8 0C696 0 682 0 668 0C654 0 640 0 626 0C612 0 598 0 584.2 0C570.3 0 556.7 0 542.8 0C529 0 515 0 501 0C487 0 473 0 459 0C445 0 431 0 417.2 0C403.3 0 389.7 0 375.8 0C362 0 348 0 334 0C320 0 306 0 292 0C278 0 264 0 250.2 0C236.3 0 222.7 0 208.8 0C195 0 181 0 167 0C153 0 139 0 125 0C111 0 97 0 83.2 0C69.3 0 55.7 0 41.8 0C28 0 14 0 7 0L0 0Z" fill="#df91d9"></path><path d="M0 14L7 14.2C14 14.3 28 14.7 41.8 14.2C55.7 13.7 69.3 12.3 83.2 12.3C97 12.3 111 13.7 125 13.5C139 13.3 153 11.7 167 11C181 10.3 195 10.7 208.8 11.2C222.7 11.7 236.3 12.3 250.2 12.7C264 13 278 13 292 12.3C306 11.7 320 10.3 334 10.2C348 10 362 11 375.8 12C389.7 13 403.3 14 417.2 14.2C431 14.3 445 13.7 459 12.8C473 12 487 11 501 10.8C515 10.7 529 11.3 542.8 11.5C556.7 11.7 570.3 11.3 584.2 10.8C598 10.3 612 9.7 626 9.5C640 9.3 654 9.7 668 10.7C682 11.7 696 13.3 709.8 13C723.7 12.7 737.3 10.3 751.2 9.5C765 8.7 779 9.3 793 9.7C807 10 821 10 835 10.7C849 11.3 863 12.7 876.8 13.3C890.7 14 904.3 14 918.2 13C932 12 946 10 953 9L960 8L960 0L953 0C946 0 932 0 918.2 0C904.3 0 890.7 0 876.8 0C863 0 849 0 835 0C821 0 807 0 793 0C779 0 765 0 751.2 0C737.3 0 723.7 0 709.8 0C696 0 682 0 668 0C654 0 640 0 626 0C612 0 598 0 584.2 0C570.3 0 556.7 0 542.8 0C529 0 515 0 501 0C487 0 473 0 459 0C445 0 431 0 417.2 0C403.3 0 389.7 0 375.8 0C362 0 348 0 334 0C320 0 306 0 292 0C278 0 264 0 250.2 0C236.3 0 222.7 0 208.8 0C195 0 181 0 167 0C153 0 139 0 125 0C111 0 97 0 83.2 0C69.3 0 55.7 0 41.8 0C28 0 14 0 7 0L0 0Z" fill="#d8aeed"></path><path d="M0 4L7 4.8C14 5.7 28 7.3 41.8 7.5C55.7 7.7 69.3 6.3 83.2 6.7C97 7 111 9 125 9.8C139 10.7 153 10.3 167 10.2C181 10 195 10 208.8 10C222.7 10 236.3 10 250.2 10C264 10 278 10 292 9.8C306 9.7 320 9.3 334 8.7C348 8 362 7 375.8 6.2C389.7 5.3 403.3 4.7 417.2 5.2C431 5.7 445 7.3 459 7.7C473 8 487 7 501 7.2C515 7.3 529 8.7 542.8 9.2C556.7 9.7 570.3 9.3 584.2 9.3C598 9.3 612 9.7 626 9.2C640 8.7 654 7.3 668 6.8C682 6.3 696 6.7 709.8 6.7C723.7 6.7 737.3 6.3 751.2 6.5C765 6.7 779 7.3 793 8C807 8.7 821 9.3 835 9.2C849 9 863 8 876.8 7.2C890.7 6.3 904.3 5.7 918.2 6.2C932 6.7 946 8.3 953 9.2L960 10L960 0L953 0C946 0 932 0 918.2 0C904.3 0 890.7 0 876.8 0C863 0 849 0 835 0C821 0 807 0 793 0C779 0 765 0 751.2 0C737.3 0 723.7 0 709.8 0C696 0 682 0 668 0C654 0 640 0 626 0C612 0 598 0 584.2 0C570.3 0 556.7 0 542.8 0C529 0 515 0 501 0C487 0 473 0 459 0C445 0 431 0 417.2 0C403.3 0 389.7 0 375.8 0C362 0 348 0 334 0C320 0 306 0 292 0C278 0 264 0 250.2 0C236.3 0 222.7 0 208.8 0C195 0 181 0 167 0C153 0 139 0 125 0C111 0 97 0 83.2 0C69.3 0 55.7 0 41.8 0C28 0 14 0 7 0L0 0Z" fill="#d7c8f8"></path><path d="M0 0L7 0C14 0 28 0 41.8 1C55.7 2 69.3 4 83.2 4.2C97 4.3 111 2.7 125 2.3C139 2 153 3 167 3.3C181 3.7 195 3.3 208.8 3.2C222.7 3 236.3 3 250.2 2.7C264 2.3 278 1.7 292 1.5C306 1.3 320 1.7 334 2C348 2.3 362 2.7 375.8 3.2C389.7 3.7 403.3 4.3 417.2 4.7C431 5 445 5 459 5.2C473 5.3 487 5.7 501 5.8C515 6 529 6 542.8 5.3C556.7 4.7 570.3 3.3 584.2 2.3C598 1.3 612 0.7 626 1.5C640 2.3 654 4.7 668 5.3C682 6 696 5 709.8 3.8C723.7 2.7 737.3 1.3 751.2 1.5C765 1.7 779 3.3 793 3.5C807 3.7 821 2.3 835 1.7C849 1 863 1 876.8 1.3C890.7 1.7 904.3 2.3 918.2 2.5C932 2.7 946 2.3 953 2.2L960 2L960 0L953 0C946 0 932 0 918.2 0C904.3 0 890.7 0 876.8 0C863 0 849 0 835 0C821 0 807 0 793 0C779 0 765 0 751.2 0C737.3 0 723.7 0 709.8 0C696 0 682 0 668 0C654 0 640 0 626 0C612 0 598 0 584.2 0C570.3 0 556.7 0 542.8 0C529 0 515 0 501 0C487 0 473 0 459 0C445 0 431 0 417.2 0C403.3 0 389.7 0 375.8 0C362 0 348 0 334 0C320 0 306 0 292 0C278 0 264 0 250.2 0C236.3 0 222.7 0 208.8 0C195 0 181 0 167 0C153 0 139 0 125 0C111 0 97 0 83.2 0C69.3 0 55.7 0 41.8 0C28 0 14 0 7 0L0 0Z" fill="#e0e0fc"></path></svg>