<svg id="visual" viewBox="0 0 960 540" width="960" height="540" xmlns="http://www.w3.org/2000/svg" xmlns:xlink="http://www.w3.org/1999/xlink" version="1.1"><path d="M102 0L103.8 11.3C105.7 22.7 109.3 45.3 110.7 67.8C112 90.3 111 112.7 99.5 135.2C88 157.7 66 180.3 55.2 202.8C44.3 225.3 44.7 247.7 47.7 270.2C50.7 292.7 56.3 315.3 60.3 337.8C64.3 360.3 66.7 382.7 76.2 405.2C85.7 427.7 102.3 450.3 111.5 472.8C120.7 495.3 122.3 517.7 123.2 528.8L124 540L0 540L0 528.8C0 517.7 0 495.3 0 472.8C0 450.3 0 427.7 0 405.2C0 382.7 0 360.3 0 337.8C0 315.3 0 292.7 0 270.2C0 247.7 0 225.3 0 202.8C0 180.3 0 157.7 0 135.2C0 112.7 0 90.3 0 67.8C0 45.3 0 22.7 0 11.3L0 0Z" fill="#ec4899" stroke-linecap="round" stroke-linejoin="miter"></path></svg>