<svg id="visual" viewBox="0 0 900 100" width="900" height="100" xmlns="http://www.w3.org/2000/svg" xmlns:xlink="http://www.w3.org/1999/xlink" version="1.1"><path d="M0 14L12.5 14.2C25 14.3 50 14.7 75 15.2C100 15.7 125 16.3 150 17.5C175 18.7 200 20.3 225 20.5C250 20.7 275 19.3 300 17.5C325 15.7 350 13.3 375 14.5C400 15.7 425 20.3 450 22.5C475 24.7 500 24.3 525 22.8C550 21.3 575 18.7 600 18.5C625 18.3 650 20.7 675 20.5C700 20.3 725 17.7 750 16.3C775 15 800 15 825 15.2C850 15.3 875 15.7 887.5 15.8L900 16L900 0L887.5 0C875 0 850 0 825 0C800 0 775 0 750 0C725 0 700 0 675 0C650 0 625 0 600 0C575 0 550 0 525 0C500 0 475 0 450 0C425 0 400 0 375 0C350 0 325 0 300 0C275 0 250 0 225 0C200 0 175 0 150 0C125 0 100 0 75 0C50 0 25 0 12.5 0L0 0Z" fill="#4f46e5"></path><path d="M0 19L12.5 20.2C25 21.3 50 23.7 75 24.8C100 26 125 26 150 26.2C175 26.3 200 26.7 225 27C250 27.3 275 27.7 300 25.8C325 24 350 20 375 20.3C400 20.7 425 25.3 450 28C475 30.7 500 31.3 525 30.5C550 29.7 575 27.3 600 27.5C625 27.7 650 30.3 675 29.8C700 29.3 725 25.7 750 24C775 22.3 800 22.7 825 23.7C850 24.7 875 26.3 887.5 27.2L900 28L900 14L887.5 13.8C875 13.7 850 13.3 825 13.2C800 13 775 13 750 14.3C725 15.7 700 18.3 675 18.5C650 18.7 625 16.3 600 16.5C575 16.7 550 19.3 525 20.8C500 22.3 475 22.7 450 20.5C425 18.3 400 13.7 375 12.5C350 11.3 325 13.7 300 15.5C275 17.3 250 18.7 225 18.5C200 18.3 175 16.7 150 15.5C125 14.3 100 13.7 75 13.2C50 12.7 25 12.3 12.5 12.2L0 12Z" fill="#c13bc0"></path><path d="M0 32L12.5 32.2C25 32.3 50 32.7 75 33.7C100 34.7 125 36.3 150 37.8C175 39.3 200 40.7 225 41C250 41.3 275 40.7 300 38.2C325 35.7 350 31.3 375 30.8C400 30.3 425 33.7 450 35.7C475 37.7 500 38.3 525 37.2C550 36 575 33 600 32.8C625 32.7 650 35.3 675 36.3C700 37.3 725 36.7 750 35.5C775 34.3 800 32.7 825 33C850 33.3 875 35.7 887.5 36.8L900 38L900 26L887.5 25.2C875 24.3 850 22.7 825 21.7C800 20.7 775 20.3 750 22C725 23.7 700 27.3 675 27.8C650 28.3 625 25.7 600 25.5C575 25.3 550 27.7 525 28.5C500 29.3 475 28.7 450 26C425 23.3 400 18.7 375 18.3C350 18 325 22 300 23.8C275 25.7 250 25.3 225 25C200 24.7 175 24.3 150 24.2C125 24 100 24 75 22.8C50 21.7 25 19.3 12.5 18.2L0 17Z" fill="#ef539d"></path><path d="M0 40L12.5 40.7C25 41.3 50 42.7 75 45.2C100 47.7 125 51.3 150 53.2C175 55 200 55 225 54.7C250 54.3 275 53.7 300 52C325 50.3 350 47.7 375 46.3C400 45 425 45 450 45.7C475 46.3 500 47.7 525 47.2C550 46.7 575 44.3 600 44.7C625 45 650 48 675 49.7C700 51.3 725 51.7 750 51C775 50.3 800 48.7 825 47.5C850 46.3 875 45.7 887.5 45.3L900 45L900 36L887.5 34.8C875 33.7 850 31.3 825 31C800 30.7 775 32.3 750 33.5C725 34.7 700 35.3 675 34.3C650 33.3 625 30.7 600 30.8C575 31 550 34 525 35.2C500 36.3 475 35.7 450 33.7C425 31.7 400 28.3 375 28.8C350 29.3 325 33.7 300 36.2C275 38.7 250 39.3 225 39C200 38.7 175 37.3 150 35.8C125 34.3 100 32.7 75 31.7C50 30.7 25 30.3 12.5 30.2L0 30Z" fill="#ff7e89"></path><path d="M0 57L12.5 59.7C25 62.3 50 67.7 75 72.2C100 76.7 125 80.3 150 81.3C175 82.3 200 80.7 225 78.3C250 76 275 73 300 72.3C325 71.7 350 73.3 375 71.2C400 69 425 63 450 63C475 63 500 69 525 70.2C550 71.3 575 67.7 600 66.3C625 65 650 66 675 69.2C700 72.3 725 77.7 750 79.5C775 81.3 800 79.7 825 79C850 78.3 875 78.7 887.5 78.8L900 79L900 43L887.5 43.3C875 43.7 850 44.3 825 45.5C800 46.7 775 48.3 750 49C725 49.7 700 49.3 675 47.7C650 46 625 43 600 42.7C575 42.3 550 44.7 525 45.2C500 45.7 475 44.3 450 43.7C425 43 400 43 375 44.3C350 45.7 325 48.3 300 50C275 51.7 250 52.3 225 52.7C200 53 175 53 150 51.2C125 49.3 100 45.7 75 43.2C50 40.7 25 39.3 12.5 38.7L0 38Z" fill="#ffaa8d"></path><path d="M0 96L12.5 95C25 94 50 92 75 92.2C100 92.3 125 94.7 150 95.2C175 95.7 200 94.3 225 94.3C250 94.3 275 95.7 300 95.8C325 96 350 95 375 93.8C400 92.7 425 91.3 450 90.7C475 90 500 90 525 91C550 92 575 94 600 94.5C625 95 650 94 675 94.2C700 94.3 725 95.7 750 95.8C775 96 800 95 825 94.8C850 94.7 875 95.3 887.5 95.7L900 96L900 77L887.5 76.8C875 76.7 850 76.3 825 77C800 77.7 775 79.3 750 77.5C725 75.7 700 70.3 675 67.2C650 64 625 63 600 64.3C575 65.7 550 69.3 525 68.2C500 67 475 61 450 61C425 61 400 67 375 69.2C350 71.3 325 69.7 300 70.3C275 71 250 74 225 76.3C200 78.7 175 80.3 150 79.3C125 78.3 100 74.7 75 70.2C50 65.7 25 60.3 12.5 57.7L0 55Z" fill="#fbd2aa"></path><path d="M0 101L12.5 101C25 101 50 101 75 101C100 101 125 101 150 101C175 101 200 101 225 101C250 101 275 101 300 101C325 101 350 101 375 101C400 101 425 101 450 101C475 101 500 101 525 101C550 101 575 101 600 101C625 101 650 101 675 101C700 101 725 101 750 101C775 101 800 101 825 101C850 101 875 101 887.5 101L900 101L900 94L887.5 93.7C875 93.3 850 92.7 825 92.8C800 93 775 94 750 93.8C725 93.7 700 92.3 675 92.2C650 92 625 93 600 92.5C575 92 550 90 525 89C500 88 475 88 450 88.7C425 89.3 400 90.7 375 91.8C350 93 325 94 300 93.8C275 93.7 250 92.3 225 92.3C200 92.3 175 93.7 150 93.2C125 92.7 100 90.3 75 90.2C50 90 25 92 12.5 93L0 94Z" fill="#fcf4da"></path></svg>