<svg id="visual" viewBox="0 0 900 100" width="900" height="100" xmlns="http://www.w3.org/2000/svg" xmlns:xlink="http://www.w3.org/1999/xlink" version="1.1"><path d="M0 14L6.5 12.3C13 10.7 26 7.3 39 5C52 2.7 65 1.3 78 3.2C91 5 104 10 117.2 10.8C130.3 11.7 143.7 8.3 156.8 8C170 7.7 183 10.3 196 13.3C209 16.3 222 19.7 235 20C248 20.3 261 17.7 274 15.5C287 13.3 300 11.7 313 12.8C326 14 339 18 352 17.2C365 16.3 378 10.7 391 10.5C404 10.3 417 15.7 430.2 18.2C443.3 20.7 456.7 20.3 469.8 20.3C483 20.3 496 20.7 509 17.5C522 14.3 535 7.7 548 4.3C561 1 574 1 587 4.3C600 7.7 613 14.3 626 16.3C639 18.3 652 15.7 665 16C678 16.3 691 19.7 704 18C717 16.3 730 9.7 743.2 8.8C756.3 8 769.7 13 782.8 15C796 17 809 16 822 17C835 18 848 21 861 20.5C874 20 887 16 893.5 14L900 12L900 101L893.5 101C887 101 874 101 861 101C848 101 835 101 822 101C809 101 796 101 782.8 101C769.7 101 756.3 101 743.2 101C730 101 717 101 704 101C691 101 678 101 665 101C652 101 639 101 626 101C613 101 600 101 587 101C574 101 561 101 548 101C535 101 522 101 509 101C496 101 483 101 469.8 101C456.7 101 443.3 101 430.2 101C417 101 404 101 391 101C378 101 365 101 352 101C339 101 326 101 313 101C300 101 287 101 274 101C261 101 248 101 235 101C222 101 209 101 196 101C183 101 170 101 156.8 101C143.7 101 130.3 101 117.2 101C104 101 91 101 78 101C65 101 52 101 39 101C26 101 13 101 6.5 101L0 101Z" fill="#2fd236"></path><path d="M0 12L6.5 15.5C13 19 26 26 39 30C52 34 65 35 78 35.3C91 35.7 104 35.3 117.2 33C130.3 30.7 143.7 26.3 156.8 23.5C170 20.7 183 19.3 196 18.5C209 17.7 222 17.3 235 18.8C248 20.3 261 23.7 274 23C287 22.3 300 17.7 313 17.3C326 17 339 21 352 24.3C365 27.7 378 30.3 391 30.2C404 30 417 27 430.2 27.3C443.3 27.7 456.7 31.3 469.8 30.5C483 29.7 496 24.3 509 22C522 19.7 535 20.3 548 22.5C561 24.7 574 28.3 587 29.8C600 31.3 613 30.7 626 27.5C639 24.3 652 18.7 665 17.2C678 15.7 691 18.3 704 19C717 19.7 730 18.3 743.2 19.5C756.3 20.7 769.7 24.3 782.8 25.3C796 26.3 809 24.7 822 23.5C835 22.3 848 21.7 861 23C874 24.3 887 27.7 893.5 29.3L900 31L900 101L893.5 101C887 101 874 101 861 101C848 101 835 101 822 101C809 101 796 101 782.8 101C769.7 101 756.3 101 743.2 101C730 101 717 101 704 101C691 101 678 101 665 101C652 101 639 101 626 101C613 101 600 101 587 101C574 101 561 101 548 101C535 101 522 101 509 101C496 101 483 101 469.8 101C456.7 101 443.3 101 430.2 101C417 101 404 101 391 101C378 101 365 101 352 101C339 101 326 101 313 101C300 101 287 101 274 101C261 101 248 101 235 101C222 101 209 101 196 101C183 101 170 101 156.8 101C143.7 101 130.3 101 117.2 101C104 101 91 101 78 101C65 101 52 101 39 101C26 101 13 101 6.5 101L0 101Z" fill="#59d959"></path><path d="M0 37L6.5 35.7C13 34.3 26 31.7 39 31.7C52 31.7 65 34.3 78 37.5C91 40.7 104 44.3 117.2 45.5C130.3 46.7 143.7 45.3 156.8 44.2C170 43 183 42 196 40C209 38 222 35 235 33C248 31 261 30 274 32.3C287 34.7 300 40.3 313 41.3C326 42.3 339 38.7 352 36.3C365 34 378 33 391 31.8C404 30.7 417 29.3 430.2 31.5C443.3 33.7 456.7 39.3 469.8 40.5C483 41.7 496 38.3 509 38.7C522 39 535 43 548 43.5C561 44 574 41 587 37.5C600 34 613 30 626 28.3C639 26.7 652 27.3 665 27.5C678 27.7 691 27.3 704 26.7C717 26 730 25 743.2 26.3C756.3 27.7 769.7 31.3 782.8 34.3C796 37.3 809 39.7 822 40.2C835 40.7 848 39.3 861 37.5C874 35.7 887 33.3 893.5 32.2L900 31L900 101L893.5 101C887 101 874 101 861 101C848 101 835 101 822 101C809 101 796 101 782.8 101C769.7 101 756.3 101 743.2 101C730 101 717 101 704 101C691 101 678 101 665 101C652 101 639 101 626 101C613 101 600 101 587 101C574 101 561 101 548 101C535 101 522 101 509 101C496 101 483 101 469.8 101C456.7 101 443.3 101 430.2 101C417 101 404 101 391 101C378 101 365 101 352 101C339 101 326 101 313 101C300 101 287 101 274 101C261 101 248 101 235 101C222 101 209 101 196 101C183 101 170 101 156.8 101C143.7 101 130.3 101 117.2 101C104 101 91 101 78 101C65 101 52 101 39 101C26 101 13 101 6.5 101L0 101Z" fill="#78e077"></path><path d="M0 48L6.5 46.7C13 45.3 26 42.7 39 42.8C52 43 65 46 78 46.7C91 47.3 104 45.7 117.2 45.8C130.3 46 143.7 48 156.8 49.7C170 51.3 183 52.7 196 53C209 53.3 222 52.7 235 53.7C248 54.7 261 57.3 274 54.8C287 52.3 300 44.7 313 42.3C326 40 339 43 352 46.5C365 50 378 54 391 53.5C404 53 417 48 430.2 44.7C443.3 41.3 456.7 39.7 469.8 39C483 38.3 496 38.7 509 39.7C522 40.7 535 42.3 548 44.3C561 46.3 574 48.7 587 51.5C600 54.3 613 57.7 626 55.8C639 54 652 47 665 45C678 43 691 46 704 47.3C717 48.7 730 48.3 743.2 50C756.3 51.7 769.7 55.3 782.8 55.8C796 56.3 809 53.7 822 51C835 48.3 848 45.7 861 46.8C874 48 887 53 893.5 55.5L900 58L900 101L893.5 101C887 101 874 101 861 101C848 101 835 101 822 101C809 101 796 101 782.8 101C769.7 101 756.3 101 743.2 101C730 101 717 101 704 101C691 101 678 101 665 101C652 101 639 101 626 101C613 101 600 101 587 101C574 101 561 101 548 101C535 101 522 101 509 101C496 101 483 101 469.8 101C456.7 101 443.3 101 430.2 101C417 101 404 101 391 101C378 101 365 101 352 101C339 101 326 101 313 101C300 101 287 101 274 101C261 101 248 101 235 101C222 101 209 101 196 101C183 101 170 101 156.8 101C143.7 101 130.3 101 117.2 101C104 101 91 101 78 101C65 101 52 101 39 101C26 101 13 101 6.5 101L0 101Z" fill="#93e793"></path><path d="M0 71L6.5 69.5C13 68 26 65 39 65.3C52 65.7 65 69.3 78 71C91 72.7 104 72.3 117.2 68.3C130.3 64.3 143.7 56.7 156.8 55.2C170 53.7 183 58.3 196 60.2C209 62 222 61 235 59.3C248 57.7 261 55.3 274 55.2C287 55 300 57 313 58.5C326 60 339 61 352 62.2C365 63.3 378 64.7 391 64.3C404 64 417 62 430.2 59.5C443.3 57 456.7 54 469.8 53.2C483 52.3 496 53.7 509 54.3C522 55 535 55 548 56.2C561 57.3 574 59.7 587 60.7C600 61.7 613 61.3 626 60.5C639 59.7 652 58.3 665 58.7C678 59 691 61 704 63.2C717 65.3 730 67.7 743.2 68C756.3 68.3 769.7 66.7 782.8 64.7C796 62.7 809 60.3 822 60.8C835 61.3 848 64.7 861 65.5C874 66.3 887 64.7 893.5 63.8L900 63L900 101L893.5 101C887 101 874 101 861 101C848 101 835 101 822 101C809 101 796 101 782.8 101C769.7 101 756.3 101 743.2 101C730 101 717 101 704 101C691 101 678 101 665 101C652 101 639 101 626 101C613 101 600 101 587 101C574 101 561 101 548 101C535 101 522 101 509 101C496 101 483 101 469.8 101C456.7 101 443.3 101 430.2 101C417 101 404 101 391 101C378 101 365 101 352 101C339 101 326 101 313 101C300 101 287 101 274 101C261 101 248 101 235 101C222 101 209 101 196 101C183 101 170 101 156.8 101C143.7 101 130.3 101 117.2 101C104 101 91 101 78 101C65 101 52 101 39 101C26 101 13 101 6.5 101L0 101Z" fill="#adedae"></path><path d="M0 83L6.5 80.5C13 78 26 73 39 72.7C52 72.3 65 76.7 78 79.3C91 82 104 83 117.2 81.5C130.3 80 143.7 76 156.8 73.2C170 70.3 183 68.7 196 70C209 71.3 222 75.7 235 76.8C248 78 261 76 274 73.2C287 70.3 300 66.7 313 65.3C326 64 339 65 352 67.3C365 69.7 378 73.3 391 75.7C404 78 417 79 430.2 78.7C443.3 78.3 456.7 76.7 469.8 74.3C483 72 496 69 509 69.5C522 70 535 74 548 74.2C561 74.3 574 70.7 587 70.2C600 69.7 613 72.3 626 71.8C639 71.3 652 67.7 665 67.8C678 68 691 72 704 73.3C717 74.7 730 73.3 743.2 74C756.3 74.7 769.7 77.3 782.8 78.2C796 79 809 78 822 77.5C835 77 848 77 861 76.8C874 76.7 887 76.3 893.5 76.2L900 76L900 101L893.5 101C887 101 874 101 861 101C848 101 835 101 822 101C809 101 796 101 782.8 101C769.7 101 756.3 101 743.2 101C730 101 717 101 704 101C691 101 678 101 665 101C652 101 639 101 626 101C613 101 600 101 587 101C574 101 561 101 548 101C535 101 522 101 509 101C496 101 483 101 469.8 101C456.7 101 443.3 101 430.2 101C417 101 404 101 391 101C378 101 365 101 352 101C339 101 326 101 313 101C300 101 287 101 274 101C261 101 248 101 235 101C222 101 209 101 196 101C183 101 170 101 156.8 101C143.7 101 130.3 101 117.2 101C104 101 91 101 78 101C65 101 52 101 39 101C26 101 13 101 6.5 101L0 101Z" fill="#c7f3c8"></path><path d="M0 91L6.5 90.2C13 89.3 26 87.7 39 86.7C52 85.7 65 85.3 78 85C91 84.7 104 84.3 117.2 83.7C130.3 83 143.7 82 156.8 81C170 80 183 79 196 79C209 79 222 80 235 82.5C248 85 261 89 274 89.3C287 89.7 300 86.3 313 86.3C326 86.3 339 89.7 352 89.7C365 89.7 378 86.3 391 84.3C404 82.3 417 81.7 430.2 81.8C443.3 82 456.7 83 469.8 82.3C483 81.7 496 79.3 509 77.8C522 76.3 535 75.7 548 75.8C561 76 574 77 587 79C600 81 613 84 626 86.2C639 88.3 652 89.7 665 88.5C678 87.3 691 83.7 704 82.8C717 82 730 84 743.2 85.5C756.3 87 769.7 88 782.8 89C796 90 809 91 822 91.2C835 91.3 848 90.7 861 91.7C874 92.7 887 95.3 893.5 96.7L900 98L900 101L893.5 101C887 101 874 101 861 101C848 101 835 101 822 101C809 101 796 101 782.8 101C769.7 101 756.3 101 743.2 101C730 101 717 101 704 101C691 101 678 101 665 101C652 101 639 101 626 101C613 101 600 101 587 101C574 101 561 101 548 101C535 101 522 101 509 101C496 101 483 101 469.8 101C456.7 101 443.3 101 430.2 101C417 101 404 101 391 101C378 101 365 101 352 101C339 101 326 101 313 101C300 101 287 101 274 101C261 101 248 101 235 101C222 101 209 101 196 101C183 101 170 101 156.8 101C143.7 101 130.3 101 117.2 101C104 101 91 101 78 101C65 101 52 101 39 101C26 101 13 101 6.5 101L0 101Z" fill="#e0f8e1"></path></svg>