<svg id="visual" viewBox="0 0 900 100" width="900" height="100" xmlns="http://www.w3.org/2000/svg" xmlns:xlink="http://www.w3.org/1999/xlink" version="1.1"><rect x="0" y="0" width="900" height="100" fill="#e0f8e1"></rect><path d="M0 50L21.5 48C43 46 86 42 128.8 39C171.7 36 214.3 34 257.2 36.2C300 38.3 343 44.7 385.8 50.7C428.7 56.7 471.3 62.3 514.2 66C557 69.7 600 71.3 642.8 68.7C685.7 66 728.3 59 771.2 52.7C814 46.3 857 40.7 878.5 37.8L900 35L900 101L878.5 101C857 101 814 101 771.2 101C728.3 101 685.7 101 642.8 101C600 101 557 101 514.2 101C471.3 101 428.7 101 385.8 101C343 101 300 101 257.2 101C214.3 101 171.7 101 128.8 101C86 101 43 101 21.5 101L0 101Z" fill="#c3e9fa" stroke-linecap="round" stroke-linejoin="miter"></path></svg>