<svg id="visual" viewBox="0 0 900 450" width="900" height="450" xmlns="http://www.w3.org/2000/svg" xmlns:xlink="http://www.w3.org/1999/xlink" version="1.1"><path d="M0 19L13.7 19.8C27.3 20.7 54.7 22.3 82 20.8C109.3 19.3 136.7 14.7 163.8 16.2C191 17.7 218 25.3 245.2 28.3C272.3 31.3 299.7 29.7 327 27.3C354.3 25 381.7 22 409 22.8C436.3 23.7 463.7 28.3 491 28.3C518.3 28.3 545.7 23.7 573 19.8C600.3 16 627.7 13 654.8 11.5C682 10 709 10 736.2 13C763.3 16 790.7 22 818 25.8C845.3 29.7 872.7 31.3 886.3 32.2L900 33L900 0L886.3 0C872.7 0 845.3 0 818 0C790.7 0 763.3 0 736.2 0C709 0 682 0 654.8 0C627.7 0 600.3 0 573 0C545.7 0 518.3 0 491 0C463.7 0 436.3 0 409 0C381.7 0 354.3 0 327 0C299.7 0 272.3 0 245.2 0C218 0 191 0 163.8 0C136.7 0 109.3 0 82 0C54.7 0 27.3 0 13.7 0L0 0Z" fill="#fcaf3c"></path><path d="M0 46L13.7 46.8C27.3 47.7 54.7 49.3 82 45.7C109.3 42 136.7 33 163.8 31.5C191 30 218 36 245.2 39C272.3 42 299.7 42 327 41.2C354.3 40.3 381.7 38.7 409 39.3C436.3 40 463.7 43 491 44.5C518.3 46 545.7 46 573 44.5C600.3 43 627.7 40 654.8 36.3C682 32.7 709 28.3 736.2 29.8C763.3 31.3 790.7 38.7 818 41.7C845.3 44.7 872.7 43.3 886.3 42.7L900 42L900 31L886.3 30.2C872.7 29.3 845.3 27.7 818 23.8C790.7 20 763.3 14 736.2 11C709 8 682 8 654.8 9.5C627.7 11 600.3 14 573 17.8C545.7 21.7 518.3 26.3 491 26.3C463.7 26.3 436.3 21.7 409 20.8C381.7 20 354.3 23 327 25.3C299.7 27.7 272.3 29.3 245.2 26.3C218 23.3 191 15.7 163.8 14.2C136.7 12.7 109.3 17.3 82 18.8C54.7 20.3 27.3 18.7 13.7 17.8L0 17Z" fill="#ff983b"></path><path d="M0 114L13.7 123C27.3 132 54.7 150 82 147.7C109.3 145.3 136.7 122.7 163.8 121.8C191 121 218 142 245.2 151.8C272.3 161.7 299.7 160.3 327 152.2C354.3 144 381.7 129 409 121.5C436.3 114 463.7 114 491 117.7C518.3 121.3 545.7 128.7 573 122.7C600.3 116.7 627.7 97.3 654.8 95.8C682 94.3 709 110.7 736.2 124.2C763.3 137.7 790.7 148.3 818 141.7C845.3 135 872.7 111 886.3 99L900 87L900 40L886.3 40.7C872.7 41.3 845.3 42.7 818 39.7C790.7 36.7 763.3 29.3 736.2 27.8C709 26.3 682 30.7 654.8 34.3C627.7 38 600.3 41 573 42.5C545.7 44 518.3 44 491 42.5C463.7 41 436.3 38 409 37.3C381.7 36.7 354.3 38.3 327 39.2C299.7 40 272.3 40 245.2 37C218 34 191 28 163.8 29.5C136.7 31 109.3 40 82 43.7C54.7 47.3 27.3 45.7 13.7 44.8L0 44Z" fill="#ff8041"></path><path d="M0 240L13.7 240.7C27.3 241.3 54.7 242.7 82 241.2C109.3 239.7 136.7 235.3 163.8 233.8C191 232.3 218 233.7 245.2 230.7C272.3 227.7 299.7 220.3 327 220.3C354.3 220.3 381.7 227.7 409 231.3C436.3 235 463.7 235 491 228.3C518.3 221.7 545.7 208.3 573 202.3C600.3 196.3 627.7 197.7 654.8 197.7C682 197.7 709 196.3 736.2 200.2C763.3 204 790.7 213 818 217.5C845.3 222 872.7 222 886.3 222L900 222L900 85L886.3 97C872.7 109 845.3 133 818 139.7C790.7 146.3 763.3 135.7 736.2 122.2C709 108.7 682 92.3 654.8 93.8C627.7 95.3 600.3 114.7 573 120.7C545.7 126.7 518.3 119.3 491 115.7C463.7 112 436.3 112 409 119.5C381.7 127 354.3 142 327 150.2C299.7 158.3 272.3 159.7 245.2 149.8C218 140 191 119 163.8 119.8C136.7 120.7 109.3 143.3 82 145.7C54.7 148 27.3 130 13.7 121L0 112Z" fill="#ff654d"></path><path d="M0 280L13.7 280C27.3 280 54.7 280 82 274C109.3 268 136.7 256 163.8 253C191 250 218 256 245.2 256C272.3 256 299.7 250 327 251.5C354.3 253 381.7 262 409 262.8C436.3 263.7 463.7 256.3 491 245.8C518.3 235.3 545.7 221.7 573 216.3C600.3 211 627.7 214 654.8 217C682 220 709 223 736.2 227.5C763.3 232 790.7 238 818 241C845.3 244 872.7 244 886.3 244L900 244L900 220L886.3 220C872.7 220 845.3 220 818 215.5C790.7 211 763.3 202 736.2 198.2C709 194.3 682 195.7 654.8 195.7C627.7 195.7 600.3 194.3 573 200.3C545.7 206.3 518.3 219.7 491 226.3C463.7 233 436.3 233 409 229.3C381.7 225.7 354.3 218.3 327 218.3C299.7 218.3 272.3 225.7 245.2 228.7C218 231.7 191 230.3 163.8 231.8C136.7 233.3 109.3 237.7 82 239.2C54.7 240.7 27.3 239.3 13.7 238.7L0 238Z" fill="#ff485c"></path><path d="M0 312L13.7 312C27.3 312 54.7 312 82 309.7C109.3 307.3 136.7 302.7 163.8 305.7C191 308.7 218 319.3 245.2 319.3C272.3 319.3 299.7 308.7 327 306.3C354.3 304 381.7 310 409 307.8C436.3 305.7 463.7 295.3 491 285.7C518.3 276 545.7 267 573 260.2C600.3 253.3 627.7 248.7 654.8 251.7C682 254.7 709 265.3 736.2 274.3C763.3 283.3 790.7 290.7 818 292.2C845.3 293.7 872.7 289.3 886.3 287.2L900 285L900 242L886.3 242C872.7 242 845.3 242 818 239C790.7 236 763.3 230 736.2 225.5C709 221 682 218 654.8 215C627.7 212 600.3 209 573 214.3C545.7 219.7 518.3 233.3 491 243.8C463.7 254.3 436.3 261.7 409 260.8C381.7 260 354.3 251 327 249.5C299.7 248 272.3 254 245.2 254C218 254 191 248 163.8 251C136.7 254 109.3 266 82 272C54.7 278 27.3 278 13.7 278L0 278Z" fill="#ff236d"></path><path d="M0 325L13.7 325.8C27.3 326.7 54.7 328.3 82 325.3C109.3 322.3 136.7 314.7 163.8 318.3C191 322 218 337 245.2 337.8C272.3 338.7 299.7 325.3 327 323.2C354.3 321 381.7 330 409 329.2C436.3 328.3 463.7 317.7 491 306.3C518.3 295 545.7 283 573 274C600.3 265 627.7 259 654.8 262C682 265 709 277 736.2 286C763.3 295 790.7 301 818 301.8C845.3 302.7 872.7 298.3 886.3 296.2L900 294L900 283L886.3 285.2C872.7 287.3 845.3 291.7 818 290.2C790.7 288.7 763.3 281.3 736.2 272.3C709 263.3 682 252.7 654.8 249.7C627.7 246.7 600.3 251.3 573 258.2C545.7 265 518.3 274 491 283.7C463.7 293.3 436.3 303.7 409 305.8C381.7 308 354.3 302 327 304.3C299.7 306.7 272.3 317.3 245.2 317.3C218 317.3 191 306.7 163.8 303.7C136.7 300.7 109.3 305.3 82 307.7C54.7 310 27.3 310 13.7 310L0 310Z" fill="#fb0081"></path><path d="M0 352L13.7 353.5C27.3 355 54.7 358 82 357.3C109.3 356.7 136.7 352.3 163.8 353.8C191 355.3 218 362.7 245.2 363.3C272.3 364 299.7 358 327 357.3C354.3 356.7 381.7 361.3 409 359.8C436.3 358.3 463.7 350.7 491 342.3C518.3 334 545.7 325 573 316.8C600.3 308.7 627.7 301.3 654.8 300.7C682 300 709 306 736.2 311.2C763.3 316.3 790.7 320.7 818 323.7C845.3 326.7 872.7 328.3 886.3 329.2L900 330L900 292L886.3 294.2C872.7 296.3 845.3 300.7 818 299.8C790.7 299 763.3 293 736.2 284C709 275 682 263 654.8 260C627.7 257 600.3 263 573 272C545.7 281 518.3 293 491 304.3C463.7 315.7 436.3 326.3 409 327.2C381.7 328 354.3 319 327 321.2C299.7 323.3 272.3 336.7 245.2 335.8C218 335 191 320 163.8 316.3C136.7 312.7 109.3 320.3 82 323.3C54.7 326.3 27.3 324.7 13.7 323.8L0 323Z" fill="#ed0097"></path><path d="M0 384L13.7 384C27.3 384 54.7 384 82 380.2C109.3 376.3 136.7 368.7 163.8 368.7C191 368.7 218 376.3 245.2 380.2C272.3 384 299.7 384 327 384.7C354.3 385.3 381.7 386.7 409 384.3C436.3 382 463.7 376 491 369.3C518.3 362.7 545.7 355.3 573 347.2C600.3 339 627.7 330 654.8 329.2C682 328.3 709 335.7 736.2 338.7C763.3 341.7 790.7 340.3 818 343.3C845.3 346.3 872.7 353.7 886.3 357.3L900 361L900 328L886.3 327.2C872.7 326.3 845.3 324.7 818 321.7C790.7 318.7 763.3 314.3 736.2 309.2C709 304 682 298 654.8 298.7C627.7 299.3 600.3 306.7 573 314.8C545.7 323 518.3 332 491 340.3C463.7 348.7 436.3 356.3 409 357.8C381.7 359.3 354.3 354.7 327 355.3C299.7 356 272.3 362 245.2 361.3C218 360.7 191 353.3 163.8 351.8C136.7 350.3 109.3 354.7 82 355.3C54.7 356 27.3 353 13.7 351.5L0 350Z" fill="#d800af"></path><path d="M0 402L13.7 402.7C27.3 403.3 54.7 404.7 82 403.8C109.3 403 136.7 400 163.8 400C191 400 218 403 245.2 405.3C272.3 407.7 299.7 409.3 327 407.8C354.3 406.3 381.7 401.7 409 398.7C436.3 395.7 463.7 394.3 491 387.7C518.3 381 545.7 369 573 359.2C600.3 349.3 627.7 341.7 654.8 345.3C682 349 709 364 736.2 368.5C763.3 373 790.7 367 818 367C845.3 367 872.7 373 886.3 376L900 379L900 359L886.3 355.3C872.7 351.7 845.3 344.3 818 341.3C790.7 338.3 763.3 339.7 736.2 336.7C709 333.7 682 326.3 654.8 327.2C627.7 328 600.3 337 573 345.2C545.7 353.3 518.3 360.7 491 367.3C463.7 374 436.3 380 409 382.3C381.7 384.7 354.3 383.3 327 382.7C299.7 382 272.3 382 245.2 378.2C218 374.3 191 366.7 163.8 366.7C136.7 366.7 109.3 374.3 82 378.2C54.7 382 27.3 382 13.7 382L0 382Z" fill="#b800c8"></path><path d="M0 442L13.7 441.3C27.3 440.7 54.7 439.3 82 438.7C109.3 438 136.7 438 163.8 437.2C191 436.3 218 434.7 245.2 433.8C272.3 433 299.7 433 327 431.5C354.3 430 381.7 427 409 427C436.3 427 463.7 430 491 430.8C518.3 431.7 545.7 430.3 573 428.8C600.3 427.3 627.7 425.7 654.8 424.8C682 424 709 424 736.2 424.8C763.3 425.7 790.7 427.3 818 428.8C845.3 430.3 872.7 431.7 886.3 432.3L900 433L900 377L886.3 374C872.7 371 845.3 365 818 365C790.7 365 763.3 371 736.2 366.5C709 362 682 347 654.8 343.3C627.7 339.7 600.3 347.3 573 357.2C545.7 367 518.3 379 491 385.7C463.7 392.3 436.3 393.7 409 396.7C381.7 399.7 354.3 404.3 327 405.8C299.7 407.3 272.3 405.7 245.2 403.3C218 401 191 398 163.8 398C136.7 398 109.3 401 82 401.8C54.7 402.7 27.3 401.3 13.7 400.7L0 400Z" fill="#881ddf"></path><path d="M0 451L13.7 451C27.3 451 54.7 451 82 451C109.3 451 136.7 451 163.8 451C191 451 218 451 245.2 451C272.3 451 299.7 451 327 451C354.3 451 381.7 451 409 451C436.3 451 463.7 451 491 451C518.3 451 545.7 451 573 451C600.3 451 627.7 451 654.8 451C682 451 709 451 736.2 451C763.3 451 790.7 451 818 451C845.3 451 872.7 451 886.3 451L900 451L900 431L886.3 430.3C872.7 429.7 845.3 428.3 818 426.8C790.7 425.3 763.3 423.7 736.2 422.8C709 422 682 422 654.8 422.8C627.7 423.7 600.3 425.3 573 426.8C545.7 428.3 518.3 429.7 491 428.8C463.7 428 436.3 425 409 425C381.7 425 354.3 428 327 429.5C299.7 431 272.3 431 245.2 431.8C218 432.7 191 434.3 163.8 435.2C136.7 436 109.3 436 82 436.7C54.7 437.3 27.3 438.7 13.7 439.3L0 440Z" fill="#1739f3"></path></svg>