<svg id="visual" viewBox="0 0 900 100" width="900" height="100" xmlns="http://www.w3.org/2000/svg" xmlns:xlink="http://www.w3.org/1999/xlink" version="1.1"><rect x="0" y="0" width="900" height="100" fill="#fef8e0"></rect><path d="M0 52L37.5 51C75 50 150 48 225 46.5C300 45 375 44 450 48C525 52 600 61 675 64.3C750 67.7 825 65.3 862.5 64.2L900 63L900 0L862.5 0C825 0 750 0 675 0C600 0 525 0 450 0C375 0 300 0 225 0C150 0 75 0 37.5 0L0 0Z" fill="#c3e9fa" stroke-linecap="round" stroke-linejoin="miter"></path></svg>