<svg id="visual" viewBox="0 0 900 100" width="900" height="100" xmlns="http://www.w3.org/2000/svg" xmlns:xlink="http://www.w3.org/1999/xlink" version="1.1"><path d="M0 67L30 64C60 61 120 55 180 50.2C240 45.3 300 41.7 360 39.5C420 37.3 480 36.7 540 42.3C600 48 660 60 720 64.7C780 69.3 840 66.7 870 65.3L900 64L900 101L870 101C840 101 780 101 720 101C660 101 600 101 540 101C480 101 420 101 360 101C300 101 240 101 180 101C120 101 60 101 30 101L0 101Z" fill="#e0f8e1" stroke-linecap="round" stroke-linejoin="miter"></path></svg>