<svg xmlns="http://www.w3.org/2000/svg" xmlns:xlink="http://www.w3.org/1999/xlink" width="500" zoomAndPan="magnify" viewBox="0 0 375 374.999991" height="500" preserveAspectRatio="xMidYMid meet" version="1.0"><defs><g/></defs><g fill="#ec4899" fill-opacity="0.302"><g transform="translate(19.715395, 217.139882)"><g><path d="M 38.078125 -80.871094 L 15.867188 -77.003906 C 11.664062 -76.183594 9.835938 -72.40625 10.390625 -69.21875 C 10.886719 -66.378906 13.246094 -64.039062 17.636719 -64.804688 L 26.675781 -66.378906 L 20.027344 -24.0625 C 18.871094 -16.945312 15.800781 -14.191406 11.753906 -13.488281 C 10.121094 -13.203125 8.601562 -14.800781 8.464844 -15.578125 C 8.492188 -15.9375 8.414062 -16.367188 8.355469 -16.710938 C 7.773438 -20.066406 4.226562 -21.578125 1.042969 -21.027344 C -2.144531 -20.472656 -5.054688 -17.835938 -4.1875 -12.84375 C -2.808594 -4.921875 5.691406 0.0742188 15.160156 -1.574219 C 22.390625 -2.832031 31.328125 -8.558594 33.597656 -22.523438 L 42.644531 -79.09375 C 42.867188 -80.371094 41.867188 -81.527344 40.488281 -81.289062 Z M 38.078125 -80.871094 "/></g></g></g><g fill="#ec4899" fill-opacity="0.302"><g transform="translate(64.050971, 209.422547)"><g><path d="M 44.984375 -33.554688 C 42.910156 -22.546875 38.9375 -17.332031 34.976562 -16.644531 C 33.429688 -16.375 32.246094 -17.054688 32.035156 -18.261719 C 31.976562 -18.605469 31.972656 -19.136719 32.070312 -19.597656 L 37.308594 -50.132812 C 37.503906 -51.054688 37.453125 -51.84375 37.320312 -52.621094 C 36.71875 -56.0625 33.300781 -57.863281 30.203125 -57.324219 C 27.707031 -56.890625 25.378906 -54.976562 24.714844 -51.136719 L 19.847656 -23.058594 C 18.261719 -17.902344 15.261719 -13.210938 11.820312 -12.613281 C 10.527344 -12.386719 9.6875 -13.128906 9.464844 -14.421875 C 9.34375 -15.109375 9.320312 -16.257812 9.429688 -17.164062 L 14.140625 -45.65625 C 14.316406 -46.664062 14.339844 -47.554688 14.191406 -48.417969 C 13.578125 -51.945312 10.058594 -53.816406 6.871094 -53.261719 C 4.460938 -52.84375 2.132812 -50.929688 1.527344 -47.277344 L -3.433594 -16.167969 C -3.683594 -14.527344 -3.671875 -12.933594 -3.414062 -11.46875 C -2.203125 -4.496094 4.304688 -0.75 11.535156 -2.007812 C 16.703125 -2.90625 20.140625 -6.078125 22.726562 -10.078125 C 25.867188 -6.808594 30.90625 -5.378906 36.070312 -6.277344 C 44.25 -7.703125 52.75 -14.414062 55.746094 -33.386719 C 55.828125 -33.933594 55.824219 -34.464844 55.734375 -34.980469 C 55.253906 -37.734375 52.386719 -38.921875 49.71875 -38.457031 C 47.480469 -38.066406 45.367188 -36.457031 44.984375 -33.554688 Z M 44.984375 -33.554688 "/></g></g></g><g fill="#ec4899" fill-opacity="0.302"><g transform="translate(110.452669, 201.34557)"><g><path d="M 41.472656 -32.320312 C 40.292969 -26.882812 37.890625 -22.828125 34.335938 -19.8125 C 34.3125 -20.964844 34.308594 -22.027344 34.113281 -23.144531 C 33.242188 -28.140625 29.75 -32.410156 26.636719 -36.035156 C 24.402344 -38.664062 22.171875 -41.289062 21.363281 -43.898438 C 23.59375 -45.351562 25.007812 -48.4375 24.558594 -51.019531 C 23.914062 -54.722656 20.472656 -57.671875 16.167969 -56.921875 C 12.898438 -56.351562 9.910156 -54.148438 8.859375 -50.503906 C 6.640625 -43.375 4.179688 -36.117188 1.859375 -29.0625 C -3.652344 -26.59375 -5.355469 -19.558594 -4.398438 -14.046875 C -2.929688 -5.609375 6.648438 -0.535156 21.886719 -3.1875 C 36.867188 -5.796875 49.308594 -13.816406 52.304688 -32.253906 C 52.417969 -32.628906 52.34375 -33.058594 52.285156 -33.40625 C 51.847656 -35.902344 48.691406 -37.214844 45.9375 -36.734375 C 43.871094 -36.375 41.984375 -34.984375 41.472656 -32.320312 Z M 13.777344 -29.894531 L 14.269531 -31.664062 C 17.390625 -29.015625 20.175781 -25.242188 20.878906 -21.195312 C 21.585938 -17.152344 20.015625 -13.417969 15.484375 -12.453125 C 12.554688 -11.941406 9.75 -12.785156 8.414062 -14.859375 C 9.132812 -14.804688 9.820312 -14.925781 10.421875 -15.03125 C 15.414062 -15.898438 17.609375 -20.628906 16.875 -24.847656 C 16.53125 -26.824219 15.496094 -28.6875 13.777344 -29.894531 Z M 13.777344 -29.894531 "/></g></g></g><g fill="#ec4899" fill-opacity="0.302"><g transform="translate(153.410839, 193.867995)"><g><path d="M 26.507812 -29.628906 C 24.714844 -19.558594 20.082031 -14.050781 15.089844 -13.183594 C 11.992188 -12.640625 9.769531 -14.207031 9.363281 -16.53125 C 9.257812 -17.132812 9.308594 -17.851562 9.378906 -18.484375 L 13.632812 -43.972656 L 19.230469 -44.945312 C 23.621094 -45.710938 25.40625 -49.214844 24.910156 -52.054688 C 24.519531 -54.292969 22.710938 -56.019531 19.441406 -55.449219 L 15.566406 -54.777344 L 18.414062 -72.566406 C 18.480469 -73.199219 18.476562 -73.730469 18.386719 -74.25 C 17.832031 -77.433594 15.144531 -79.628906 11.355469 -78.96875 C 8.515625 -78.472656 6.449219 -76.074219 5.941406 -72.878906 L 2.394531 -52.484375 L -1.21875 -51.855469 C -5.871094 -51.042969 -7.339844 -47.773438 -6.859375 -45.019531 C -6.441406 -42.609375 -4.617188 -40.796875 -2.292969 -41.199219 L 0.546875 -41.695312 L -3.074219 -19.6875 L -3.085938 -19.773438 C -3.417969 -17.589844 -3.429688 -15.632812 -3.117188 -13.828125 C -1.585938 -5.046875 7.144531 -1.242188 16.011719 -2.789062 C 27.03125 -4.707031 34.820312 -14.488281 37.269531 -29.460938 C 37.335938 -30.09375 37.40625 -30.726562 37.316406 -31.242188 C 36.867188 -33.824219 34.082031 -35.027344 31.414062 -34.5625 C 29.261719 -34.1875 27.0625 -32.5625 26.507812 -29.628906 Z M 26.507812 -29.628906 "/></g></g></g><g fill="#ec4899" fill-opacity="0.302"><g transform="translate(181.561778, 188.967862)"><g><path d="M 9.0625 -62.070312 C 11.269531 -65.203125 13.839844 -67.25 16.9375 -67.789062 C 22.792969 -68.808594 27.609375 -66.097656 32.460938 -62.683594 L 27.699219 -34.003906 C 23.878906 -35.554688 19.101562 -36.5 14.109375 -35.628906 C 5.671875 -34.160156 -3.132812 -28.191406 -3.703125 -17.714844 C -3.792969 -16.191406 -3.640625 -14.800781 -3.414062 -13.507812 C -1.691406 -3.609375 8.324219 0.945312 18.742188 -0.867188 C 26.578125 -2.230469 33.324219 -6.777344 37.0625 -14.34375 C 42.273438 -10.90625 48.46875 -8.4375 56.5625 -9.84375 C 68.269531 -11.882812 77.328125 -21 79.796875 -37.394531 C 79.878906 -37.941406 79.875 -38.472656 79.796875 -38.902344 C 79.320312 -41.660156 76.421875 -43.015625 73.753906 -42.550781 C 71.601562 -42.175781 69.570312 -40.582031 69.019531 -37.648438 C 66.9375 -27.175781 61.921875 -23.375 55.726562 -22.296875 C 49.785156 -21.261719 45.636719 -24.707031 40.683594 -28.191406 L 44.96875 -55.546875 C 48.085938 -53.960938 51.800781 -52.480469 55.804688 -53.441406 C 64.410156 -54.941406 70.722656 -64.554688 69.027344 -74.28125 C 67.363281 -83.839844 59.285156 -88.464844 51.96875 -87.191406 C 45.511719 -86.066406 39.445312 -82.703125 35.707031 -75.132812 C 30.496094 -78.574219 24.269531 -81.214844 16.089844 -79.792969 C 8.6875 -78.503906 3.378906 -75.363281 -0.722656 -68.351562 C -1.472656 -67.066406 -1.679688 -65.699219 -1.46875 -64.496094 C -0.929688 -61.394531 2.261719 -58.847656 5.277344 -59.371094 C 6.652344 -59.609375 8.011719 -60.46875 9.0625 -62.070312 Z M 52.964844 -74.324219 C 55.203125 -74.714844 56.878906 -73.765625 57.34375 -71.09375 C 57.808594 -68.425781 56.011719 -66.515625 53.601562 -66.097656 C 51.101562 -65.664062 49.082031 -67.085938 47.808594 -68.28125 C 48.757812 -71.996094 50.726562 -73.933594 52.964844 -74.324219 Z M 16.496094 -11.742188 C 13.050781 -11.140625 10.652344 -13.207031 10.15625 -16.046875 C 10.050781 -16.652344 9.945312 -17.253906 10.015625 -17.886719 C 10.40625 -21.238281 12.984375 -24.257812 16.945312 -24.945312 C 20.042969 -25.488281 22.882812 -24.472656 25.785156 -22.582031 C 24.09375 -15.992188 20.453125 -12.429688 16.496094 -11.742188 Z M 16.496094 -11.742188 "/></g></g></g><g fill="#ec4899" fill-opacity="0.302"><g transform="translate(251.982157, 176.710039)"><g><path d="M 12.984375 -62.488281 C 16.855469 -63.160156 19.488281 -66.902344 18.800781 -70.859375 C 18.125 -74.734375 14.398438 -77.28125 10.527344 -76.605469 C 6.652344 -75.929688 4.003906 -72.277344 4.679688 -68.402344 C 5.371094 -64.441406 9.109375 -61.8125 12.984375 -62.488281 Z M 9.003906 -16.558594 L 13.769531 -45.238281 C 13.917969 -46.417969 14.136719 -47.699219 13.988281 -48.558594 C 13.328125 -52.347656 10.144531 -53.832031 7.214844 -53.324219 C 4.546875 -52.859375 2.035156 -50.46875 1.363281 -46.183594 C 0.015625 -37.613281 -1.816406 -26.738281 -3.175781 -18.25 C -3.394531 -16.441406 -3.679688 -13.996094 -3.421875 -12.53125 C -2.015625 -4.4375 5.511719 -0.960938 13.429688 -2.335938 C 21.867188 -3.804688 30.265625 -10.589844 33.191406 -29.460938 C 33.273438 -30.007812 33.269531 -30.539062 33.179688 -31.054688 C 32.714844 -33.722656 29.847656 -34.910156 27.265625 -34.460938 C 24.941406 -34.054688 22.824219 -32.445312 22.257812 -29.597656 C 20.15625 -17.699219 16.210938 -13.375 12.765625 -12.777344 C 10.785156 -12.433594 9.269531 -13.5 8.984375 -15.136719 C 8.910156 -15.566406 8.921875 -16.011719 9.003906 -16.558594 Z M 9.003906 -16.558594 "/></g></g></g><g fill="#ec4899" fill-opacity="0.302"><g transform="translate(275.742568, 172.57415)"><g><path d="M 43.511719 -32.320312 C 42.015625 -23.101562 38.507812 -17.257812 34.203125 -16.507812 C 32.996094 -16.300781 32.445312 -16.914062 32.3125 -17.6875 C 32.191406 -18.375 32.214844 -19.265625 32.339844 -20.085938 C 32.925781 -24.359375 33.175781 -25.464844 32.800781 -27.617188 C 32.441406 -29.683594 31.609375 -31.402344 30.179688 -32.484375 C 32.351562 -34.28125 34.214844 -36.824219 34.90625 -40.492188 C 35.167969 -42.042969 35.226562 -43.742188 34.957031 -45.289062 C 33.804688 -51.917969 27.535156 -56.859375 20.042969 -55.554688 C 18.410156 -55.269531 17.132812 -54.960938 15.671875 -54.171875 L 18.328125 -70.511719 C 18.546875 -71.792969 18.699219 -72.972656 18.519531 -74.003906 C 17.859375 -77.792969 14.628906 -79.539062 11.613281 -79.011719 C 8.773438 -78.519531 6.691406 -76.203125 5.949219 -71.816406 L -4.753906 -5.914062 C -4.808594 -5.195312 -4.804688 -4.664062 -4.699219 -4.0625 C -4.160156 -0.960938 -1.207031 0.210938 1.722656 -0.300781 C 4.820312 -0.839844 7.777344 -3.214844 8.296875 -6.855469 L 10.6875 -24.210938 C 12.792969 -22.804688 14.691406 -22.601562 16.242188 -22.875 C 17.964844 -23.171875 19.238281 -24.015625 19.953125 -24.496094 C 20.507812 -24.859375 19.960938 -22.898438 19.769531 -21.980469 C 19.3125 -19.503906 19.285156 -17.105469 19.660156 -14.953125 C 20.816406 -8.324219 25.742188 -4.480469 34.179688 -5.949219 C 45.800781 -7.972656 52.421875 -18.347656 54.402344 -32.441406 C 54.484375 -32.988281 54.496094 -33.433594 54.421875 -33.863281 C 53.972656 -36.449219 51.03125 -37.53125 48.363281 -37.070312 C 46.039062 -36.664062 43.824219 -35.125 43.511719 -32.320312 Z M 12.382812 -34.351562 L 13.167969 -39.011719 C 14.175781 -42.382812 16.5625 -44.484375 19.058594 -44.917969 C 21.210938 -45.292969 23.039062 -44.457031 23.371094 -42.5625 C 23.460938 -42.046875 23.464844 -41.515625 23.308594 -40.867188 C 22.878906 -38.753906 21.3125 -37.0625 19.351562 -36.097656 C 18.289062 -36.089844 17.3125 -36.097656 16.363281 -35.933594 C 14.640625 -35.632812 13.238281 -35.035156 12.382812 -34.351562 Z M 12.382812 -34.351562 "/></g></g></g><g fill="#ec4899" fill-opacity="0.302"><g transform="translate(320.852937, 164.72195)"><g><path d="M 39.335938 -31.859375 C 37.285156 -21.214844 28.949219 -15.59375 21.632812 -14.320312 C 15.347656 -13.226562 10.863281 -15.550781 10.175781 -19.511719 C 10.039062 -20.285156 9.992188 -21.074219 10.1875 -21.996094 L 10.589844 -23.753906 C 13.355469 -22.636719 16.636719 -22.144531 20.078125 -22.742188 C 27.914062 -24.105469 33.945312 -30.210938 34.921875 -38.367188 C 35.066406 -40.074219 35.042969 -41.757812 34.785156 -43.21875 C 33.363281 -51.398438 25.8125 -56.558594 16.082031 -54.867188 C 8.421875 -53.53125 1.710938 -47.753906 0.195312 -38.617188 L -2.320312 -23.011719 C -2.648438 -20.828125 -2.71875 -18.683594 -2.375 -16.707031 C -0.59375 -6.460938 10.160156 -1.769531 22.726562 -3.957031 C 34.695312 -6.039062 47.277344 -14.261719 50.097656 -31.695312 C 50.234375 -32.425781 50.21875 -33.042969 50.128906 -33.5625 C 49.664062 -36.230469 46.996094 -37.273438 44.414062 -36.824219 C 42.003906 -36.40625 39.644531 -34.664062 39.335938 -31.859375 Z M 17.59375 -44.664062 C 20.003906 -45.082031 21.898438 -43.371094 22.332031 -40.875 C 22.453125 -40.1875 22.488281 -39.484375 22.347656 -38.75 C 21.980469 -35.757812 19.578125 -34.277344 16.996094 -33.824219 C 15.359375 -33.542969 13.664062 -33.601562 12.339844 -34.078125 L 13.25 -39.558594 C 13.730469 -42.394531 15.613281 -44.316406 17.59375 -44.664062 Z M 17.59375 -44.664062 "/></g></g></g><g fill="#ec4899" fill-opacity="0.502"><g transform="translate(15.632156, 212.584951)"><g><path d="M 38.078125 -80.871094 L 15.867188 -77.003906 C 11.664062 -76.183594 9.835938 -72.40625 10.390625 -69.21875 C 10.886719 -66.378906 13.246094 -64.039062 17.636719 -64.804688 L 26.675781 -66.378906 L 20.027344 -24.0625 C 18.871094 -16.945312 15.800781 -14.191406 11.753906 -13.488281 C 10.121094 -13.203125 8.601562 -14.800781 8.464844 -15.578125 C 8.492188 -15.9375 8.414062 -16.367188 8.355469 -16.710938 C 7.773438 -20.066406 4.226562 -21.578125 1.042969 -21.027344 C -2.144531 -20.472656 -5.054688 -17.835938 -4.1875 -12.84375 C -2.808594 -4.921875 5.691406 0.0742188 15.160156 -1.574219 C 22.390625 -2.832031 31.328125 -8.558594 33.597656 -22.523438 L 42.644531 -79.09375 C 42.867188 -80.371094 41.867188 -81.527344 40.488281 -81.289062 Z M 38.078125 -80.871094 "/></g></g></g><g fill="#ec4899" fill-opacity="0.502"><g transform="translate(59.967732, 204.867616)"><g><path d="M 44.984375 -33.554688 C 42.910156 -22.546875 38.9375 -17.332031 34.976562 -16.644531 C 33.429688 -16.375 32.246094 -17.054688 32.035156 -18.261719 C 31.976562 -18.605469 31.972656 -19.136719 32.070312 -19.597656 L 37.308594 -50.132812 C 37.503906 -51.054688 37.453125 -51.84375 37.320312 -52.621094 C 36.71875 -56.0625 33.300781 -57.863281 30.203125 -57.324219 C 27.707031 -56.890625 25.378906 -54.976562 24.714844 -51.136719 L 19.847656 -23.058594 C 18.261719 -17.902344 15.261719 -13.210938 11.820312 -12.613281 C 10.527344 -12.386719 9.6875 -13.128906 9.464844 -14.421875 C 9.34375 -15.109375 9.320312 -16.257812 9.429688 -17.164062 L 14.140625 -45.65625 C 14.316406 -46.664062 14.339844 -47.554688 14.191406 -48.417969 C 13.578125 -51.945312 10.058594 -53.816406 6.871094 -53.261719 C 4.460938 -52.84375 2.132812 -50.929688 1.527344 -47.277344 L -3.433594 -16.167969 C -3.683594 -14.527344 -3.671875 -12.933594 -3.414062 -11.46875 C -2.203125 -4.496094 4.304688 -0.75 11.535156 -2.007812 C 16.703125 -2.90625 20.140625 -6.078125 22.726562 -10.078125 C 25.867188 -6.808594 30.90625 -5.378906 36.070312 -6.277344 C 44.25 -7.703125 52.75 -14.414062 55.746094 -33.386719 C 55.828125 -33.933594 55.824219 -34.464844 55.734375 -34.980469 C 55.253906 -37.734375 52.386719 -38.921875 49.71875 -38.457031 C 47.480469 -38.066406 45.367188 -36.457031 44.984375 -33.554688 Z M 44.984375 -33.554688 "/></g></g></g><g fill="#ec4899" fill-opacity="0.502"><g transform="translate(106.369431, 196.790639)"><g><path d="M 41.472656 -32.320312 C 40.292969 -26.882812 37.890625 -22.828125 34.335938 -19.8125 C 34.3125 -20.964844 34.308594 -22.027344 34.113281 -23.144531 C 33.242188 -28.140625 29.75 -32.410156 26.636719 -36.035156 C 24.402344 -38.664062 22.171875 -41.289062 21.363281 -43.898438 C 23.59375 -45.351562 25.007812 -48.4375 24.558594 -51.019531 C 23.914062 -54.722656 20.472656 -57.671875 16.167969 -56.921875 C 12.898438 -56.351562 9.910156 -54.148438 8.859375 -50.503906 C 6.640625 -43.375 4.179688 -36.117188 1.859375 -29.0625 C -3.652344 -26.59375 -5.355469 -19.558594 -4.398438 -14.046875 C -2.929688 -5.609375 6.648438 -0.535156 21.886719 -3.1875 C 36.867188 -5.796875 49.308594 -13.816406 52.304688 -32.253906 C 52.417969 -32.628906 52.34375 -33.058594 52.285156 -33.40625 C 51.847656 -35.902344 48.691406 -37.214844 45.9375 -36.734375 C 43.871094 -36.375 41.984375 -34.984375 41.472656 -32.320312 Z M 13.777344 -29.894531 L 14.269531 -31.664062 C 17.390625 -29.015625 20.175781 -25.242188 20.878906 -21.195312 C 21.585938 -17.152344 20.015625 -13.417969 15.484375 -12.453125 C 12.554688 -11.941406 9.75 -12.785156 8.414062 -14.859375 C 9.132812 -14.804688 9.820312 -14.925781 10.421875 -15.03125 C 15.414062 -15.898438 17.609375 -20.628906 16.875 -24.847656 C 16.53125 -26.824219 15.496094 -28.6875 13.777344 -29.894531 Z M 13.777344 -29.894531 "/></g></g></g><g fill="#ec4899" fill-opacity="0.502"><g transform="translate(149.3276, 189.313064)"><g><path d="M 26.507812 -29.628906 C 24.714844 -19.558594 20.082031 -14.050781 15.089844 -13.183594 C 11.992188 -12.640625 9.769531 -14.207031 9.363281 -16.53125 C 9.257812 -17.132812 9.308594 -17.851562 9.378906 -18.484375 L 13.632812 -43.972656 L 19.230469 -44.945312 C 23.621094 -45.710938 25.40625 -49.214844 24.910156 -52.054688 C 24.519531 -54.292969 22.710938 -56.019531 19.441406 -55.449219 L 15.566406 -54.777344 L 18.414062 -72.566406 C 18.480469 -73.199219 18.476562 -73.730469 18.386719 -74.25 C 17.832031 -77.433594 15.144531 -79.628906 11.355469 -78.96875 C 8.515625 -78.472656 6.449219 -76.074219 5.941406 -72.878906 L 2.394531 -52.484375 L -1.21875 -51.855469 C -5.871094 -51.042969 -7.339844 -47.773438 -6.859375 -45.019531 C -6.441406 -42.609375 -4.617188 -40.796875 -2.292969 -41.199219 L 0.546875 -41.695312 L -3.074219 -19.6875 L -3.085938 -19.773438 C -3.417969 -17.589844 -3.429688 -15.632812 -3.117188 -13.828125 C -1.585938 -5.046875 7.144531 -1.242188 16.011719 -2.789062 C 27.03125 -4.707031 34.820312 -14.488281 37.269531 -29.460938 C 37.335938 -30.09375 37.40625 -30.726562 37.316406 -31.242188 C 36.867188 -33.824219 34.082031 -35.027344 31.414062 -34.5625 C 29.261719 -34.1875 27.0625 -32.5625 26.507812 -29.628906 Z M 26.507812 -29.628906 "/></g></g></g><g fill="#ec4899" fill-opacity="0.502"><g transform="translate(177.478539, 184.412931)"><g><path d="M 9.0625 -62.070312 C 11.269531 -65.203125 13.839844 -67.25 16.9375 -67.789062 C 22.792969 -68.808594 27.609375 -66.097656 32.460938 -62.683594 L 27.699219 -34.003906 C 23.878906 -35.554688 19.101562 -36.5 14.109375 -35.628906 C 5.671875 -34.160156 -3.132812 -28.191406 -3.703125 -17.714844 C -3.792969 -16.191406 -3.640625 -14.800781 -3.414062 -13.507812 C -1.691406 -3.609375 8.324219 0.945312 18.742188 -0.867188 C 26.578125 -2.230469 33.324219 -6.777344 37.0625 -14.34375 C 42.273438 -10.90625 48.46875 -8.4375 56.5625 -9.84375 C 68.269531 -11.882812 77.328125 -21 79.796875 -37.394531 C 79.878906 -37.941406 79.875 -38.472656 79.796875 -38.902344 C 79.320312 -41.660156 76.421875 -43.015625 73.753906 -42.550781 C 71.601562 -42.175781 69.570312 -40.582031 69.019531 -37.648438 C 66.9375 -27.175781 61.921875 -23.375 55.726562 -22.296875 C 49.785156 -21.261719 45.636719 -24.707031 40.683594 -28.191406 L 44.96875 -55.546875 C 48.085938 -53.960938 51.800781 -52.480469 55.804688 -53.441406 C 64.410156 -54.941406 70.722656 -64.554688 69.027344 -74.28125 C 67.363281 -83.839844 59.285156 -88.464844 51.96875 -87.191406 C 45.511719 -86.066406 39.445312 -82.703125 35.707031 -75.132812 C 30.496094 -78.574219 24.269531 -81.214844 16.089844 -79.792969 C 8.6875 -78.503906 3.378906 -75.363281 -0.722656 -68.351562 C -1.472656 -67.066406 -1.679688 -65.699219 -1.46875 -64.496094 C -0.929688 -61.394531 2.261719 -58.847656 5.277344 -59.371094 C 6.652344 -59.609375 8.011719 -60.46875 9.0625 -62.070312 Z M 52.964844 -74.324219 C 55.203125 -74.714844 56.878906 -73.765625 57.34375 -71.09375 C 57.808594 -68.425781 56.011719 -66.515625 53.601562 -66.097656 C 51.101562 -65.664062 49.082031 -67.085938 47.808594 -68.28125 C 48.757812 -71.996094 50.726562 -73.933594 52.964844 -74.324219 Z M 16.496094 -11.742188 C 13.050781 -11.140625 10.652344 -13.207031 10.15625 -16.046875 C 10.050781 -16.652344 9.945312 -17.253906 10.015625 -17.886719 C 10.40625 -21.238281 12.984375 -24.257812 16.945312 -24.945312 C 20.042969 -25.488281 22.882812 -24.472656 25.785156 -22.582031 C 24.09375 -15.992188 20.453125 -12.429688 16.496094 -11.742188 Z M 16.496094 -11.742188 "/></g></g></g><g fill="#ec4899" fill-opacity="0.502"><g transform="translate(247.898919, 172.155108)"><g><path d="M 12.984375 -62.488281 C 16.855469 -63.160156 19.488281 -66.902344 18.800781 -70.859375 C 18.125 -74.734375 14.398438 -77.28125 10.527344 -76.605469 C 6.652344 -75.929688 4.003906 -72.277344 4.679688 -68.402344 C 5.371094 -64.441406 9.109375 -61.8125 12.984375 -62.488281 Z M 9.003906 -16.558594 L 13.769531 -45.238281 C 13.917969 -46.417969 14.136719 -47.699219 13.988281 -48.558594 C 13.328125 -52.347656 10.144531 -53.832031 7.214844 -53.324219 C 4.546875 -52.859375 2.035156 -50.46875 1.363281 -46.183594 C 0.015625 -37.613281 -1.816406 -26.738281 -3.175781 -18.25 C -3.394531 -16.441406 -3.679688 -13.996094 -3.421875 -12.53125 C -2.015625 -4.4375 5.511719 -0.960938 13.429688 -2.335938 C 21.867188 -3.804688 30.265625 -10.589844 33.191406 -29.460938 C 33.273438 -30.007812 33.269531 -30.539062 33.179688 -31.054688 C 32.714844 -33.722656 29.847656 -34.910156 27.265625 -34.460938 C 24.941406 -34.054688 22.824219 -32.445312 22.257812 -29.597656 C 20.15625 -17.699219 16.210938 -13.375 12.765625 -12.777344 C 10.785156 -12.433594 9.269531 -13.5 8.984375 -15.136719 C 8.910156 -15.566406 8.921875 -16.011719 9.003906 -16.558594 Z M 9.003906 -16.558594 "/></g></g></g><g fill="#ec4899" fill-opacity="0.502"><g transform="translate(271.659329, 168.019219)"><g><path d="M 43.511719 -32.320312 C 42.015625 -23.101562 38.507812 -17.257812 34.203125 -16.507812 C 32.996094 -16.300781 32.445312 -16.914062 32.3125 -17.6875 C 32.191406 -18.375 32.214844 -19.265625 32.339844 -20.085938 C 32.925781 -24.359375 33.175781 -25.464844 32.800781 -27.617188 C 32.441406 -29.683594 31.609375 -31.402344 30.179688 -32.484375 C 32.351562 -34.28125 34.214844 -36.824219 34.90625 -40.492188 C 35.167969 -42.042969 35.226562 -43.742188 34.957031 -45.289062 C 33.804688 -51.917969 27.535156 -56.859375 20.042969 -55.554688 C 18.410156 -55.269531 17.132812 -54.960938 15.671875 -54.171875 L 18.328125 -70.511719 C 18.546875 -71.792969 18.699219 -72.972656 18.519531 -74.003906 C 17.859375 -77.792969 14.628906 -79.539062 11.613281 -79.011719 C 8.773438 -78.519531 6.691406 -76.203125 5.949219 -71.816406 L -4.753906 -5.914062 C -4.808594 -5.195312 -4.804688 -4.664062 -4.699219 -4.0625 C -4.160156 -0.960938 -1.207031 0.210938 1.722656 -0.300781 C 4.820312 -0.839844 7.777344 -3.214844 8.296875 -6.855469 L 10.6875 -24.210938 C 12.792969 -22.804688 14.691406 -22.601562 16.242188 -22.875 C 17.964844 -23.171875 19.238281 -24.015625 19.953125 -24.496094 C 20.507812 -24.859375 19.960938 -22.898438 19.769531 -21.980469 C 19.3125 -19.503906 19.285156 -17.105469 19.660156 -14.953125 C 20.816406 -8.324219 25.742188 -4.480469 34.179688 -5.949219 C 45.800781 -7.972656 52.421875 -18.347656 54.402344 -32.441406 C 54.484375 -32.988281 54.496094 -33.433594 54.421875 -33.863281 C 53.972656 -36.449219 51.03125 -37.53125 48.363281 -37.070312 C 46.039062 -36.664062 43.824219 -35.125 43.511719 -32.320312 Z M 12.382812 -34.351562 L 13.167969 -39.011719 C 14.175781 -42.382812 16.5625 -44.484375 19.058594 -44.917969 C 21.210938 -45.292969 23.039062 -44.457031 23.371094 -42.5625 C 23.460938 -42.046875 23.464844 -41.515625 23.308594 -40.867188 C 22.878906 -38.753906 21.3125 -37.0625 19.351562 -36.097656 C 18.289062 -36.089844 17.3125 -36.097656 16.363281 -35.933594 C 14.640625 -35.632812 13.238281 -35.035156 12.382812 -34.351562 Z M 12.382812 -34.351562 "/></g></g></g><g fill="#ec4899" fill-opacity="0.502"><g transform="translate(316.769699, 160.167019)"><g><path d="M 39.335938 -31.859375 C 37.285156 -21.214844 28.949219 -15.59375 21.632812 -14.320312 C 15.347656 -13.226562 10.863281 -15.550781 10.175781 -19.511719 C 10.039062 -20.285156 9.992188 -21.074219 10.1875 -21.996094 L 10.589844 -23.753906 C 13.355469 -22.636719 16.636719 -22.144531 20.078125 -22.742188 C 27.914062 -24.105469 33.945312 -30.210938 34.921875 -38.367188 C 35.066406 -40.074219 35.042969 -41.757812 34.785156 -43.21875 C 33.363281 -51.398438 25.8125 -56.558594 16.082031 -54.867188 C 8.421875 -53.53125 1.710938 -47.753906 0.195312 -38.617188 L -2.320312 -23.011719 C -2.648438 -20.828125 -2.71875 -18.683594 -2.375 -16.707031 C -0.59375 -6.460938 10.160156 -1.769531 22.726562 -3.957031 C 34.695312 -6.039062 47.277344 -14.261719 50.097656 -31.695312 C 50.234375 -32.425781 50.21875 -33.042969 50.128906 -33.5625 C 49.664062 -36.230469 46.996094 -37.273438 44.414062 -36.824219 C 42.003906 -36.40625 39.644531 -34.664062 39.335938 -31.859375 Z M 17.59375 -44.664062 C 20.003906 -45.082031 21.898438 -43.371094 22.332031 -40.875 C 22.453125 -40.1875 22.488281 -39.484375 22.347656 -38.75 C 21.980469 -35.757812 19.578125 -34.277344 16.996094 -33.824219 C 15.359375 -33.542969 13.664062 -33.601562 12.339844 -34.078125 L 13.25 -39.558594 C 13.730469 -42.394531 15.613281 -44.316406 17.59375 -44.664062 Z M 17.59375 -44.664062 "/></g></g></g><g fill="#f6f3e4" fill-opacity="1"><g transform="translate(11.548918, 208.029991)"><g><path d="M 38.078125 -80.871094 L 15.867188 -77.003906 C 11.664062 -76.183594 9.835938 -72.40625 10.390625 -69.21875 C 10.886719 -66.378906 13.246094 -64.039062 17.636719 -64.804688 L 26.675781 -66.378906 L 20.027344 -24.0625 C 18.871094 -16.945312 15.800781 -14.191406 11.753906 -13.488281 C 10.121094 -13.203125 8.601562 -14.800781 8.464844 -15.578125 C 8.492188 -15.9375 8.414062 -16.367188 8.355469 -16.710938 C 7.773438 -20.066406 4.226562 -21.578125 1.042969 -21.027344 C -2.144531 -20.472656 -5.054688 -17.835938 -4.1875 -12.84375 C -2.808594 -4.921875 5.691406 0.0742188 15.160156 -1.574219 C 22.390625 -2.832031 31.328125 -8.558594 33.597656 -22.523438 L 42.644531 -79.09375 C 42.867188 -80.371094 41.867188 -81.527344 40.488281 -81.289062 Z M 38.078125 -80.871094 "/></g></g></g><g fill="#f6f3e4" fill-opacity="1"><g transform="translate(55.884494, 200.312656)"><g><path d="M 44.984375 -33.554688 C 42.910156 -22.546875 38.9375 -17.332031 34.976562 -16.644531 C 33.429688 -16.375 32.246094 -17.054688 32.035156 -18.261719 C 31.976562 -18.605469 31.972656 -19.136719 32.070312 -19.597656 L 37.308594 -50.132812 C 37.503906 -51.054688 37.453125 -51.84375 37.320312 -52.621094 C 36.71875 -56.0625 33.300781 -57.863281 30.203125 -57.324219 C 27.707031 -56.890625 25.378906 -54.976562 24.714844 -51.136719 L 19.847656 -23.058594 C 18.261719 -17.902344 15.261719 -13.210938 11.820312 -12.613281 C 10.527344 -12.386719 9.6875 -13.128906 9.464844 -14.421875 C 9.34375 -15.109375 9.320312 -16.257812 9.429688 -17.164062 L 14.140625 -45.65625 C 14.316406 -46.664062 14.339844 -47.554688 14.191406 -48.417969 C 13.578125 -51.945312 10.058594 -53.816406 6.871094 -53.261719 C 4.460938 -52.84375 2.132812 -50.929688 1.527344 -47.277344 L -3.433594 -16.167969 C -3.683594 -14.527344 -3.671875 -12.933594 -3.414062 -11.46875 C -2.203125 -4.496094 4.304688 -0.75 11.535156 -2.007812 C 16.703125 -2.90625 20.140625 -6.078125 22.726562 -10.078125 C 25.867188 -6.808594 30.90625 -5.378906 36.070312 -6.277344 C 44.25 -7.703125 52.75 -14.414062 55.746094 -33.386719 C 55.828125 -33.933594 55.824219 -34.464844 55.734375 -34.980469 C 55.253906 -37.734375 52.386719 -38.921875 49.71875 -38.457031 C 47.480469 -38.066406 45.367188 -36.457031 44.984375 -33.554688 Z M 44.984375 -33.554688 "/></g></g></g><g fill="#f6f3e4" fill-opacity="1"><g transform="translate(102.286192, 192.235679)"><g><path d="M 41.472656 -32.320312 C 40.292969 -26.882812 37.890625 -22.828125 34.335938 -19.8125 C 34.3125 -20.964844 34.308594 -22.027344 34.113281 -23.144531 C 33.242188 -28.140625 29.75 -32.410156 26.636719 -36.035156 C 24.402344 -38.664062 22.171875 -41.289062 21.363281 -43.898438 C 23.59375 -45.351562 25.007812 -48.4375 24.558594 -51.019531 C 23.914062 -54.722656 20.472656 -57.671875 16.167969 -56.921875 C 12.898438 -56.351562 9.910156 -54.148438 8.859375 -50.503906 C 6.640625 -43.375 4.179688 -36.117188 1.859375 -29.0625 C -3.652344 -26.59375 -5.355469 -19.558594 -4.398438 -14.046875 C -2.929688 -5.609375 6.648438 -0.535156 21.886719 -3.1875 C 36.867188 -5.796875 49.308594 -13.816406 52.304688 -32.253906 C 52.417969 -32.628906 52.34375 -33.058594 52.285156 -33.40625 C 51.847656 -35.902344 48.691406 -37.214844 45.9375 -36.734375 C 43.871094 -36.375 41.984375 -34.984375 41.472656 -32.320312 Z M 13.777344 -29.894531 L 14.269531 -31.664062 C 17.390625 -29.015625 20.175781 -25.242188 20.878906 -21.195312 C 21.585938 -17.152344 20.015625 -13.417969 15.484375 -12.453125 C 12.554688 -11.941406 9.75 -12.785156 8.414062 -14.859375 C 9.132812 -14.804688 9.820312 -14.925781 10.421875 -15.03125 C 15.414062 -15.898438 17.609375 -20.628906 16.875 -24.847656 C 16.53125 -26.824219 15.496094 -28.6875 13.777344 -29.894531 Z M 13.777344 -29.894531 "/></g></g></g><g fill="#f6f3e4" fill-opacity="1"><g transform="translate(145.244362, 184.758105)"><g><path d="M 26.507812 -29.628906 C 24.714844 -19.558594 20.082031 -14.050781 15.089844 -13.183594 C 11.992188 -12.640625 9.769531 -14.207031 9.363281 -16.53125 C 9.257812 -17.132812 9.308594 -17.851562 9.378906 -18.484375 L 13.632812 -43.972656 L 19.230469 -44.945312 C 23.621094 -45.710938 25.40625 -49.214844 24.910156 -52.054688 C 24.519531 -54.292969 22.710938 -56.019531 19.441406 -55.449219 L 15.566406 -54.777344 L 18.414062 -72.566406 C 18.480469 -73.199219 18.476562 -73.730469 18.386719 -74.25 C 17.832031 -77.433594 15.144531 -79.628906 11.355469 -78.96875 C 8.515625 -78.472656 6.449219 -76.074219 5.941406 -72.878906 L 2.394531 -52.484375 L -1.21875 -51.855469 C -5.871094 -51.042969 -7.339844 -47.773438 -6.859375 -45.019531 C -6.441406 -42.609375 -4.617188 -40.796875 -2.292969 -41.199219 L 0.546875 -41.695312 L -3.074219 -19.6875 L -3.085938 -19.773438 C -3.417969 -17.589844 -3.429688 -15.632812 -3.117188 -13.828125 C -1.585938 -5.046875 7.144531 -1.242188 16.011719 -2.789062 C 27.03125 -4.707031 34.820312 -14.488281 37.269531 -29.460938 C 37.335938 -30.09375 37.40625 -30.726562 37.316406 -31.242188 C 36.867188 -33.824219 34.082031 -35.027344 31.414062 -34.5625 C 29.261719 -34.1875 27.0625 -32.5625 26.507812 -29.628906 Z M 26.507812 -29.628906 "/></g></g></g><g fill="#f6f3e4" fill-opacity="1"><g transform="translate(173.395301, 179.857972)"><g><path d="M 9.0625 -62.070312 C 11.269531 -65.203125 13.839844 -67.25 16.9375 -67.789062 C 22.792969 -68.808594 27.609375 -66.097656 32.460938 -62.683594 L 27.699219 -34.003906 C 23.878906 -35.554688 19.101562 -36.5 14.109375 -35.628906 C 5.671875 -34.160156 -3.132812 -28.191406 -3.703125 -17.714844 C -3.792969 -16.191406 -3.640625 -14.800781 -3.414062 -13.507812 C -1.691406 -3.609375 8.324219 0.945312 18.742188 -0.867188 C 26.578125 -2.230469 33.324219 -6.777344 37.0625 -14.34375 C 42.273438 -10.90625 48.46875 -8.4375 56.5625 -9.84375 C 68.269531 -11.882812 77.328125 -21 79.796875 -37.394531 C 79.878906 -37.941406 79.875 -38.472656 79.796875 -38.902344 C 79.320312 -41.660156 76.421875 -43.015625 73.753906 -42.550781 C 71.601562 -42.175781 69.570312 -40.582031 69.019531 -37.648438 C 66.9375 -27.175781 61.921875 -23.375 55.726562 -22.296875 C 49.785156 -21.261719 45.636719 -24.707031 40.683594 -28.191406 L 44.96875 -55.546875 C 48.085938 -53.960938 51.800781 -52.480469 55.804688 -53.441406 C 64.410156 -54.941406 70.722656 -64.554688 69.027344 -74.28125 C 67.363281 -83.839844 59.285156 -88.464844 51.96875 -87.191406 C 45.511719 -86.066406 39.445312 -82.703125 35.707031 -75.132812 C 30.496094 -78.574219 24.269531 -81.214844 16.089844 -79.792969 C 8.6875 -78.503906 3.378906 -75.363281 -0.722656 -68.351562 C -1.472656 -67.066406 -1.679688 -65.699219 -1.46875 -64.496094 C -0.929688 -61.394531 2.261719 -58.847656 5.277344 -59.371094 C 6.652344 -59.609375 8.011719 -60.46875 9.0625 -62.070312 Z M 52.964844 -74.324219 C 55.203125 -74.714844 56.878906 -73.765625 57.34375 -71.09375 C 57.808594 -68.425781 56.011719 -66.515625 53.601562 -66.097656 C 51.101562 -65.664062 49.082031 -67.085938 47.808594 -68.28125 C 48.757812 -71.996094 50.726562 -73.933594 52.964844 -74.324219 Z M 16.496094 -11.742188 C 13.050781 -11.140625 10.652344 -13.207031 10.15625 -16.046875 C 10.050781 -16.652344 9.945312 -17.253906 10.015625 -17.886719 C 10.40625 -21.238281 12.984375 -24.257812 16.945312 -24.945312 C 20.042969 -25.488281 22.882812 -24.472656 25.785156 -22.582031 C 24.09375 -15.992188 20.453125 -12.429688 16.496094 -11.742188 Z M 16.496094 -11.742188 "/></g></g></g><g fill="#f6f3e4" fill-opacity="1"><g transform="translate(243.81568, 167.600149)"><g><path d="M 12.984375 -62.488281 C 16.855469 -63.160156 19.488281 -66.902344 18.800781 -70.859375 C 18.125 -74.734375 14.398438 -77.28125 10.527344 -76.605469 C 6.652344 -75.929688 4.003906 -72.277344 4.679688 -68.402344 C 5.371094 -64.441406 9.109375 -61.8125 12.984375 -62.488281 Z M 9.003906 -16.558594 L 13.769531 -45.238281 C 13.917969 -46.417969 14.136719 -47.699219 13.988281 -48.558594 C 13.328125 -52.347656 10.144531 -53.832031 7.214844 -53.324219 C 4.546875 -52.859375 2.035156 -50.46875 1.363281 -46.183594 C 0.015625 -37.613281 -1.816406 -26.738281 -3.175781 -18.25 C -3.394531 -16.441406 -3.679688 -13.996094 -3.421875 -12.53125 C -2.015625 -4.4375 5.511719 -0.960938 13.429688 -2.335938 C 21.867188 -3.804688 30.265625 -10.589844 33.191406 -29.460938 C 33.273438 -30.007812 33.269531 -30.539062 33.179688 -31.054688 C 32.714844 -33.722656 29.847656 -34.910156 27.265625 -34.460938 C 24.941406 -34.054688 22.824219 -32.445312 22.257812 -29.597656 C 20.15625 -17.699219 16.210938 -13.375 12.765625 -12.777344 C 10.785156 -12.433594 9.269531 -13.5 8.984375 -15.136719 C 8.910156 -15.566406 8.921875 -16.011719 9.003906 -16.558594 Z M 9.003906 -16.558594 "/></g></g></g><g fill="#f6f3e4" fill-opacity="1"><g transform="translate(267.57609, 163.464259)"><g><path d="M 43.511719 -32.320312 C 42.015625 -23.101562 38.507812 -17.257812 34.203125 -16.507812 C 32.996094 -16.300781 32.445312 -16.914062 32.3125 -17.6875 C 32.191406 -18.375 32.214844 -19.265625 32.339844 -20.085938 C 32.925781 -24.359375 33.175781 -25.464844 32.800781 -27.617188 C 32.441406 -29.683594 31.609375 -31.402344 30.179688 -32.484375 C 32.351562 -34.28125 34.214844 -36.824219 34.90625 -40.492188 C 35.167969 -42.042969 35.226562 -43.742188 34.957031 -45.289062 C 33.804688 -51.917969 27.535156 -56.859375 20.042969 -55.554688 C 18.410156 -55.269531 17.132812 -54.960938 15.671875 -54.171875 L 18.328125 -70.511719 C 18.546875 -71.792969 18.699219 -72.972656 18.519531 -74.003906 C 17.859375 -77.792969 14.628906 -79.539062 11.613281 -79.011719 C 8.773438 -78.519531 6.691406 -76.203125 5.949219 -71.816406 L -4.753906 -5.914062 C -4.808594 -5.195312 -4.804688 -4.664062 -4.699219 -4.0625 C -4.160156 -0.960938 -1.207031 0.210938 1.722656 -0.300781 C 4.820312 -0.839844 7.777344 -3.214844 8.296875 -6.855469 L 10.6875 -24.210938 C 12.792969 -22.804688 14.691406 -22.601562 16.242188 -22.875 C 17.964844 -23.171875 19.238281 -24.015625 19.953125 -24.496094 C 20.507812 -24.859375 19.960938 -22.898438 19.769531 -21.980469 C 19.3125 -19.503906 19.285156 -17.105469 19.660156 -14.953125 C 20.816406 -8.324219 25.742188 -4.480469 34.179688 -5.949219 C 45.800781 -7.972656 52.421875 -18.347656 54.402344 -32.441406 C 54.484375 -32.988281 54.496094 -33.433594 54.421875 -33.863281 C 53.972656 -36.449219 51.03125 -37.53125 48.363281 -37.070312 C 46.039062 -36.664062 43.824219 -35.125 43.511719 -32.320312 Z M 12.382812 -34.351562 L 13.167969 -39.011719 C 14.175781 -42.382812 16.5625 -44.484375 19.058594 -44.917969 C 21.210938 -45.292969 23.039062 -44.457031 23.371094 -42.5625 C 23.460938 -42.046875 23.464844 -41.515625 23.308594 -40.867188 C 22.878906 -38.753906 21.3125 -37.0625 19.351562 -36.097656 C 18.289062 -36.089844 17.3125 -36.097656 16.363281 -35.933594 C 14.640625 -35.632812 13.238281 -35.035156 12.382812 -34.351562 Z M 12.382812 -34.351562 "/></g></g></g><g fill="#f6f3e4" fill-opacity="1"><g transform="translate(312.68646, 155.612059)"><g><path d="M 39.335938 -31.859375 C 37.285156 -21.214844 28.949219 -15.59375 21.632812 -14.320312 C 15.347656 -13.226562 10.863281 -15.550781 10.175781 -19.511719 C 10.039062 -20.285156 9.992188 -21.074219 10.1875 -21.996094 L 10.589844 -23.753906 C 13.355469 -22.636719 16.636719 -22.144531 20.078125 -22.742188 C 27.914062 -24.105469 33.945312 -30.210938 34.921875 -38.367188 C 35.066406 -40.074219 35.042969 -41.757812 34.785156 -43.21875 C 33.363281 -51.398438 25.8125 -56.558594 16.082031 -54.867188 C 8.421875 -53.53125 1.710938 -47.753906 0.195312 -38.617188 L -2.320312 -23.011719 C -2.648438 -20.828125 -2.71875 -18.683594 -2.375 -16.707031 C -0.59375 -6.460938 10.160156 -1.769531 22.726562 -3.957031 C 34.695312 -6.039062 47.277344 -14.261719 50.097656 -31.695312 C 50.234375 -32.425781 50.21875 -33.042969 50.128906 -33.5625 C 49.664062 -36.230469 46.996094 -37.273438 44.414062 -36.824219 C 42.003906 -36.40625 39.644531 -34.664062 39.335938 -31.859375 Z M 17.59375 -44.664062 C 20.003906 -45.082031 21.898438 -43.371094 22.332031 -40.875 C 22.453125 -40.1875 22.488281 -39.484375 22.347656 -38.75 C 21.980469 -35.757812 19.578125 -34.277344 16.996094 -33.824219 C 15.359375 -33.542969 13.664062 -33.601562 12.339844 -34.078125 L 13.25 -39.558594 C 13.730469 -42.394531 15.613281 -44.316406 17.59375 -44.664062 Z M 17.59375 -44.664062 "/></g></g></g><g fill="#ec4899" fill-opacity="0.302"><g transform="translate(39.092346, 289.930171)"><g><path d="M 44.707031 -74.203125 L 6.992188 -68.503906 C 2.582031 -67.679688 1.09375 -64.910156 1.46875 -62.421875 C 1.820312 -60.089844 3.871094 -58.089844 6.671875 -58.515625 L 18.726562 -60.335938 L 9.09375 -8.769531 C 8.902344 -7.945312 8.941406 -7.15625 9.035156 -6.535156 C 9.527344 -3.269531 12.675781 -1.914062 15.628906 -2.359375 C 18.273438 -2.761719 20.707031 -4.558594 21.273438 -7.667969 L 31.554688 -62.273438 L 44.230469 -64.1875 C 48.585938 -64.84375 50.054688 -67.769531 49.679688 -70.261719 C 49.324219 -72.59375 47.351562 -74.601562 44.707031 -74.203125 Z M 44.707031 -74.203125 "/></g></g></g><g fill="#ec4899" fill-opacity="0.302"><g transform="translate(85.593963, 282.906292)"><g><path d="M 40.917969 -29.246094 C 38.90625 -19.398438 35.074219 -14.761719 31.574219 -14.234375 C 30.097656 -14.011719 29.035156 -14.726562 28.859375 -15.890625 C 28.8125 -16.203125 28.832031 -16.605469 28.9375 -16.9375 L 32.578125 -36.019531 C 32.898438 -37.582031 32.84375 -39.003906 32.644531 -40.324219 C 31.703125 -46.546875 26.078125 -50.628906 19.777344 -49.675781 C 17.910156 -49.394531 16.480469 -48.859375 14.953125 -47.914062 L 17.691406 -62.960938 C 17.894531 -64.265625 18.105469 -65.492188 17.953125 -66.5 C 17.460938 -69.769531 14.613281 -71.246094 12.046875 -70.859375 C 9.011719 -70.402344 7.417969 -68.332031 6.5625 -63.984375 L -4.113281 -8.285156 C -4.339844 -7.140625 -4.34375 -6.105469 -4.203125 -5.171875 C -3.671875 -1.671875 -0.777344 0.117188 1.867188 -0.28125 C 4.121094 -0.621094 6.242188 -2.375 6.917969 -5.816406 L 12.308594 -33.832031 C 13.496094 -37.035156 15.796875 -39.691406 18.210938 -40.054688 C 19.765625 -40.289062 21.03125 -39.285156 21.242188 -37.886719 C 21.3125 -37.421875 21.304688 -36.941406 21.140625 -36.441406 L 17.917969 -19.332031 C 17.578125 -17.371094 17.527344 -15.613281 17.761719 -14.058594 C 18.867188 -6.746094 25.664062 -3.875 32.273438 -4.875 C 39.660156 -5.992188 47.441406 -11.859375 50.597656 -28.878906 C 50.671875 -29.449219 50.679688 -29.925781 50.609375 -30.390625 C 50.246094 -32.804688 47.675781 -34.007812 45.1875 -33.628906 C 43.246094 -33.335938 41.308594 -31.929688 40.917969 -29.246094 Z M 40.917969 -29.246094 "/></g></g></g><g fill="#ec4899" fill-opacity="0.302"><g transform="translate(127.274345, 276.610641)"><g><path d="M 36.035156 -27.875 C 33.976562 -18.335938 26.363281 -13.449219 19.753906 -12.449219 C 14.078125 -11.589844 10.089844 -13.773438 9.546875 -17.351562 C 9.441406 -18.050781 9.414062 -18.761719 9.609375 -19.585938 L 10.007812 -21.15625 C 12.472656 -20.097656 15.414062 -19.589844 18.523438 -20.058594 C 25.601562 -21.128906 31.152344 -26.5 32.195312 -33.816406 C 32.363281 -35.351562 32.371094 -36.863281 32.171875 -38.1875 C 31.054688 -45.574219 24.367188 -50.371094 15.578125 -49.042969 C 8.65625 -47.996094 2.503906 -42.929688 0.957031 -34.742188 L -1.625 -20.753906 C -1.964844 -18.792969 -2.070312 -16.867188 -1.800781 -15.078125 C -0.402344 -5.824219 9.175781 -1.386719 20.53125 -3.101562 C 31.339844 -4.734375 42.828125 -11.878906 45.714844 -27.503906 C 45.855469 -28.164062 45.851562 -28.71875 45.78125 -29.1875 C 45.417969 -31.597656 43.039062 -32.589844 40.707031 -32.238281 C 38.527344 -31.910156 36.371094 -30.390625 36.035156 -27.875 Z M 16.730469 -39.832031 C 18.910156 -40.160156 20.578125 -38.582031 20.917969 -36.328125 C 21.015625 -35.707031 21.03125 -35.070312 20.890625 -34.414062 C 20.5 -31.730469 18.308594 -30.445312 15.976562 -30.09375 C 14.5 -29.871094 12.972656 -29.957031 11.789062 -30.414062 L 12.71875 -35.328125 C 13.210938 -37.867188 14.941406 -39.5625 16.730469 -39.832031 Z M 16.730469 -39.832031 "/></g></g></g><g fill="#ec4899" fill-opacity="0.302"><g transform="translate(164.133484, 271.043219)"><g><path d="M 36.019531 -28.507812 C 34.214844 -20.441406 31.109375 -14.164062 27.839844 -13.671875 C 26.753906 -13.507812 26.054688 -14.433594 25.890625 -15.523438 C 25.820312 -15.988281 25.804688 -16.625 25.945312 -17.28125 L 28.605469 -30.726562 C 28.835938 -32.351562 28.9375 -33.800781 28.738281 -35.121094 C 27.621094 -42.511719 17.820312 -44.210938 13.265625 -44.875 C 13.40625 -45.53125 13.378906 -46.246094 13.28125 -46.867188 C 12.742188 -50.445312 9.097656 -52.996094 5.597656 -52.464844 C 1.007812 -51.773438 -1.101562 -47.316406 -0.433594 -42.886719 C -0.140625 -40.941406 0.867188 -39.023438 2.34375 -37.65625 L -1.015625 -21.480469 C -1.078125 -20.835938 -1.0625 -20.203125 -0.992188 -19.734375 C -0.605469 -17.167969 1.617188 -16.152344 3.792969 -16.480469 C 5.972656 -16.808594 8.039062 -18.394531 8.597656 -21.023438 L 11.1875 -33.347656 C 13.472656 -32.976562 16.433594 -32.867188 16.832031 -30.222656 C 16.890625 -29.832031 16.882812 -29.355469 16.808594 -28.785156 L 14.820312 -18.78125 C 14.46875 -16.898438 14.402344 -15.21875 14.640625 -13.664062 C 15.660156 -6.898438 21.695312 -3.277344 28.152344 -4.253906 C 36.628906 -5.53125 43.1875 -14.238281 45.789062 -28.074219 C 45.875 -28.5625 45.894531 -28.964844 45.835938 -29.351562 C 45.484375 -31.6875 42.679688 -32.855469 40.191406 -32.476562 C 38.171875 -32.171875 36.367188 -30.945312 36.019531 -28.507812 Z M 36.019531 -28.507812 "/></g></g></g><g fill="#ec4899" fill-opacity="0.302"><g transform="translate(200.914864, 265.487542)"><g><path d="M 44.789062 -33.648438 C 42.609375 -33.320312 40.398438 -31.632812 39.914062 -28.539062 C 38.324219 -18.515625 33.90625 -14.585938 30.40625 -14.058594 C 29.085938 -13.859375 28.203125 -14.441406 28.015625 -15.683594 C 27.921875 -16.308594 27.957031 -17.109375 28.0625 -18 L 32.96875 -44.511719 C 33.136719 -45.492188 33.164062 -46.371094 33.046875 -47.148438 C 32.527344 -50.570312 29.460938 -51.933594 26.582031 -51.5 C 24.40625 -51.171875 22.300781 -49.820312 21.351562 -47.6875 C 19.566406 -48.453125 16.355469 -49.160156 12.390625 -48.5625 C 7.257812 -47.785156 2.082031 -44.140625 0.886719 -37.835938 L -3.261719 -15.8125 C -3.519531 -14.34375 -3.617188 -12.894531 -3.40625 -11.496094 C -2.433594 -5.042969 3.578125 -0.539062 10.421875 -1.574219 C 14.074219 -2.125 17.5625 -4.324219 20.050781 -7.324219 C 23.078125 -4.121094 28.695312 -4.335938 31.027344 -4.6875 C 37.484375 -5.660156 45.621094 -10.230469 48.695312 -23.582031 C 49.324219 -26.777344 49.886719 -28.851562 49.675781 -30.25 C 49.277344 -32.894531 47.042969 -33.988281 44.789062 -33.648438 Z M 19.007812 -30.550781 L 17.027344 -18.398438 C 16.15625 -13.097656 13.378906 -11.484375 11.746094 -11.238281 C 10.035156 -10.980469 9.015625 -11.941406 8.742188 -13.730469 C 8.589844 -14.738281 8.683594 -15.707031 8.8125 -16.441406 L 11.425781 -32.824219 C 12.1875 -37.792969 14.269531 -38.742188 15.515625 -38.929688 C 16.992188 -39.15625 18.847656 -37.921875 19.25 -35.28125 C 19.425781 -34.113281 19.335938 -32.589844 19.007812 -30.550781 Z M 19.007812 -30.550781 "/></g></g></g><g fill="#ec4899" fill-opacity="0.302"><g transform="translate(241.739851, 259.321095)"><g><path d="M 39 -28.796875 C 37.472656 -22.046875 33.585938 -17.242188 28.515625 -14.488281 L 28.96875 -16.226562 C 30.25 -22.464844 31.53125 -29.261719 32.804688 -35.578125 C 33.070312 -36.96875 33.105469 -38.328125 32.894531 -39.726562 C 31.941406 -46.027344 25.921875 -50.605469 19.855469 -49.6875 C 17.757812 -49.371094 15.328125 -48.605469 13.828125 -46.949219 C 13.699219 -48.839844 10.910156 -49.929688 8.113281 -49.503906 C 5.546875 -49.117188 3.269531 -47.34375 2.59375 -43.898438 L -8.5 13.769531 C -8.734375 14.839844 -8.761719 15.71875 -8.644531 16.496094 C -8.160156 19.6875 -5.269531 20.917969 -2.472656 20.496094 C 0.09375 20.109375 2.472656 18.476562 2.972656 15.457031 L 6.410156 -3.910156 C 9.101562 -2.410156 13.917969 -2.101562 20.375 -3.078125 C 35.460938 -5.355469 45.832031 -13.046875 48.746094 -28.519531 C 48.871094 -29.253906 48.933594 -29.902344 48.851562 -30.445312 C 48.464844 -33.011719 46.050781 -34.238281 43.71875 -33.886719 C 41.617188 -33.566406 39.484375 -31.894531 39 -28.796875 Z M 8.804688 -15.964844 L 12.300781 -34.945312 C 12.808594 -37.886719 14.632812 -39.515625 16.808594 -39.84375 C 18.675781 -40.125 20.585938 -39.0625 20.878906 -37.117188 C 20.984375 -36.417969 20.9375 -35.695312 20.820312 -34.878906 C 19.804688 -28.445312 18.496094 -22.359375 17.3125 -15.976562 C 16.808594 -13.515625 14.921875 -11.796875 12.832031 -11.402344 C 10.8125 -11.097656 9.089844 -11.953125 8.761719 -14.128906 C 8.679688 -14.671875 8.664062 -15.308594 8.804688 -15.964844 Z M 8.804688 -15.964844 "/></g></g></g><g fill="#ec4899" fill-opacity="0.302"><g transform="translate(281.553944, 253.30734)"><g><path d="M 8.710938 -14.996094 L 13.644531 -40.796875 C 13.824219 -41.699219 13.863281 -42.5 13.746094 -43.277344 C 13.265625 -46.464844 10.136719 -48.21875 7.257812 -47.785156 C 5.082031 -47.457031 2.949219 -45.78125 2.328125 -42.507812 L -3.039062 -14.335938 C -3.363281 -12.773438 -3.371094 -11.261719 -3.160156 -9.863281 C -2.359375 -4.574219 1.945312 -1.328125 7.15625 -1.082031 C -2.015625 2.453125 -10.839844 7.761719 -9.394531 17.328125 C -8.253906 24.871094 -0.503906 28.789062 7.117188 27.636719 C 14.816406 26.476562 21.425781 21.261719 23.328125 11.746094 C 23.925781 8.316406 24.652344 4.707031 25.335938 1.34375 C 35.929688 -3.835938 46.445312 -11.628906 49.34375 -28.769531 C 49.484375 -29.425781 49.464844 -30.0625 49.382812 -30.605469 C 48.984375 -33.25 46.726562 -34.5 44.394531 -34.148438 C 42.296875 -33.828125 40.238281 -32.167969 39.609375 -28.96875 C 37.929688 -20.601562 33.425781 -15.148438 27.828125 -11.125 L 34.011719 -44.429688 C 34.140625 -45.164062 34.125 -45.796875 34.042969 -46.34375 C 33.5625 -49.53125 30.433594 -51.285156 27.554688 -50.851562 C 25.378906 -50.523438 23.246094 -48.847656 22.625 -45.574219 L 17.652344 -17.9375 C 15.796875 -13.363281 13.3125 -11.394531 11.210938 -11.078125 C 9.8125 -10.867188 8.828125 -11.59375 8.617188 -12.992188 C 8.535156 -13.539062 8.582031 -14.261719 8.710938 -14.996094 Z M 11.648438 7.070312 L 10.578125 12.640625 C 9.925781 15.679688 7.738281 17.523438 5.40625 17.875 C 3.617188 18.144531 2.671875 17.175781 2.460938 15.773438 C 2.390625 15.308594 2.375 14.675781 2.527344 14.09375 C 3.203125 11.207031 6.792969 9.15625 11.648438 7.070312 Z M 11.648438 7.070312 "/></g></g></g><g fill="#ec4899" fill-opacity="0.302"><g transform="translate(321.990144, 247.199617)"><g><path d="M 29.179688 -25.882812 L 39.640625 -70.890625 C 40.832031 -80.378906 29.320312 -80.230469 27.808594 -71.808594 L 19.078125 -27.460938 C 17.375 -20.839844 27.582031 -18.5625 29.179688 -25.882812 Z M 20.160156 -16.089844 C 16.660156 -15.5625 14.203125 -12.328125 14.746094 -8.75 C 15.273438 -5.25 18.585938 -2.808594 22.085938 -3.335938 C 25.664062 -3.875 28.105469 -7.1875 27.578125 -10.6875 C 27.035156 -14.265625 23.734375 -16.628906 20.160156 -16.089844 Z M 20.160156 -16.089844 "/></g></g></g><g fill="#ec4899" fill-opacity="0.502"><g transform="translate(35.510278, 285.74933)"><g><path d="M 44.707031 -74.203125 L 6.992188 -68.503906 C 2.582031 -67.679688 1.09375 -64.910156 1.46875 -62.421875 C 1.820312 -60.089844 3.871094 -58.089844 6.671875 -58.515625 L 18.726562 -60.335938 L 9.09375 -8.769531 C 8.902344 -7.945312 8.941406 -7.15625 9.035156 -6.535156 C 9.527344 -3.269531 12.675781 -1.914062 15.628906 -2.359375 C 18.273438 -2.761719 20.707031 -4.558594 21.273438 -7.667969 L 31.554688 -62.273438 L 44.230469 -64.1875 C 48.585938 -64.84375 50.054688 -67.769531 49.679688 -70.261719 C 49.324219 -72.59375 47.351562 -74.601562 44.707031 -74.203125 Z M 44.707031 -74.203125 "/></g></g></g><g fill="#ec4899" fill-opacity="0.502"><g transform="translate(82.011894, 278.725451)"><g><path d="M 40.917969 -29.246094 C 38.90625 -19.398438 35.074219 -14.761719 31.574219 -14.234375 C 30.097656 -14.011719 29.035156 -14.726562 28.859375 -15.890625 C 28.8125 -16.203125 28.832031 -16.605469 28.9375 -16.9375 L 32.578125 -36.019531 C 32.898438 -37.582031 32.84375 -39.003906 32.644531 -40.324219 C 31.703125 -46.546875 26.078125 -50.628906 19.777344 -49.675781 C 17.910156 -49.394531 16.480469 -48.859375 14.953125 -47.914062 L 17.691406 -62.960938 C 17.894531 -64.265625 18.105469 -65.492188 17.953125 -66.5 C 17.460938 -69.769531 14.613281 -71.246094 12.046875 -70.859375 C 9.011719 -70.402344 7.417969 -68.332031 6.5625 -63.984375 L -4.113281 -8.285156 C -4.339844 -7.140625 -4.34375 -6.105469 -4.203125 -5.171875 C -3.671875 -1.671875 -0.777344 0.117188 1.867188 -0.28125 C 4.121094 -0.621094 6.242188 -2.375 6.917969 -5.816406 L 12.308594 -33.832031 C 13.496094 -37.035156 15.796875 -39.691406 18.210938 -40.054688 C 19.765625 -40.289062 21.03125 -39.285156 21.242188 -37.886719 C 21.3125 -37.421875 21.304688 -36.941406 21.140625 -36.441406 L 17.917969 -19.332031 C 17.578125 -17.371094 17.527344 -15.613281 17.761719 -14.058594 C 18.867188 -6.746094 25.664062 -3.875 32.273438 -4.875 C 39.660156 -5.992188 47.441406 -11.859375 50.597656 -28.878906 C 50.671875 -29.449219 50.679688 -29.925781 50.609375 -30.390625 C 50.246094 -32.804688 47.675781 -34.007812 45.1875 -33.628906 C 43.246094 -33.335938 41.308594 -31.929688 40.917969 -29.246094 Z M 40.917969 -29.246094 "/></g></g></g><g fill="#ec4899" fill-opacity="0.502"><g transform="translate(123.692277, 272.4298)"><g><path d="M 36.035156 -27.875 C 33.976562 -18.335938 26.363281 -13.449219 19.753906 -12.449219 C 14.078125 -11.589844 10.089844 -13.773438 9.546875 -17.351562 C 9.441406 -18.050781 9.414062 -18.761719 9.609375 -19.585938 L 10.007812 -21.15625 C 12.472656 -20.097656 15.414062 -19.589844 18.523438 -20.058594 C 25.601562 -21.128906 31.152344 -26.5 32.195312 -33.816406 C 32.363281 -35.351562 32.371094 -36.863281 32.171875 -38.1875 C 31.054688 -45.574219 24.367188 -50.371094 15.578125 -49.042969 C 8.65625 -47.996094 2.503906 -42.929688 0.957031 -34.742188 L -1.625 -20.753906 C -1.964844 -18.792969 -2.070312 -16.867188 -1.800781 -15.078125 C -0.402344 -5.824219 9.175781 -1.386719 20.53125 -3.101562 C 31.339844 -4.734375 42.828125 -11.878906 45.714844 -27.503906 C 45.855469 -28.164062 45.851562 -28.71875 45.78125 -29.1875 C 45.417969 -31.597656 43.039062 -32.589844 40.707031 -32.238281 C 38.527344 -31.910156 36.371094 -30.390625 36.035156 -27.875 Z M 16.730469 -39.832031 C 18.910156 -40.160156 20.578125 -38.582031 20.917969 -36.328125 C 21.015625 -35.707031 21.03125 -35.070312 20.890625 -34.414062 C 20.5 -31.730469 18.308594 -30.445312 15.976562 -30.09375 C 14.5 -29.871094 12.972656 -29.957031 11.789062 -30.414062 L 12.71875 -35.328125 C 13.210938 -37.867188 14.941406 -39.5625 16.730469 -39.832031 Z M 16.730469 -39.832031 "/></g></g></g><g fill="#ec4899" fill-opacity="0.502"><g transform="translate(160.551416, 266.862379)"><g><path d="M 36.019531 -28.507812 C 34.214844 -20.441406 31.109375 -14.164062 27.839844 -13.671875 C 26.753906 -13.507812 26.054688 -14.433594 25.890625 -15.523438 C 25.820312 -15.988281 25.804688 -16.625 25.945312 -17.28125 L 28.605469 -30.726562 C 28.835938 -32.351562 28.9375 -33.800781 28.738281 -35.121094 C 27.621094 -42.511719 17.820312 -44.210938 13.265625 -44.875 C 13.40625 -45.53125 13.378906 -46.246094 13.28125 -46.867188 C 12.742188 -50.445312 9.097656 -52.996094 5.597656 -52.464844 C 1.007812 -51.773438 -1.101562 -47.316406 -0.433594 -42.886719 C -0.140625 -40.941406 0.867188 -39.023438 2.34375 -37.65625 L -1.015625 -21.480469 C -1.078125 -20.835938 -1.0625 -20.203125 -0.992188 -19.734375 C -0.605469 -17.167969 1.617188 -16.152344 3.792969 -16.480469 C 5.972656 -16.808594 8.039062 -18.394531 8.597656 -21.023438 L 11.1875 -33.347656 C 13.472656 -32.976562 16.433594 -32.867188 16.832031 -30.222656 C 16.890625 -29.832031 16.882812 -29.355469 16.808594 -28.785156 L 14.820312 -18.78125 C 14.46875 -16.898438 14.402344 -15.21875 14.640625 -13.664062 C 15.660156 -6.898438 21.695312 -3.277344 28.152344 -4.253906 C 36.628906 -5.53125 43.1875 -14.238281 45.789062 -28.074219 C 45.875 -28.5625 45.894531 -28.964844 45.835938 -29.351562 C 45.484375 -31.6875 42.679688 -32.855469 40.191406 -32.476562 C 38.171875 -32.171875 36.367188 -30.945312 36.019531 -28.507812 Z M 36.019531 -28.507812 "/></g></g></g><g fill="#ec4899" fill-opacity="0.502"><g transform="translate(197.332795, 261.306702)"><g><path d="M 44.789062 -33.648438 C 42.609375 -33.320312 40.398438 -31.632812 39.914062 -28.539062 C 38.324219 -18.515625 33.90625 -14.585938 30.40625 -14.058594 C 29.085938 -13.859375 28.203125 -14.441406 28.015625 -15.683594 C 27.921875 -16.308594 27.957031 -17.109375 28.0625 -18 L 32.96875 -44.511719 C 33.136719 -45.492188 33.164062 -46.371094 33.046875 -47.148438 C 32.527344 -50.570312 29.460938 -51.933594 26.582031 -51.5 C 24.40625 -51.171875 22.300781 -49.820312 21.351562 -47.6875 C 19.566406 -48.453125 16.355469 -49.160156 12.390625 -48.5625 C 7.257812 -47.785156 2.082031 -44.140625 0.886719 -37.835938 L -3.261719 -15.8125 C -3.519531 -14.34375 -3.617188 -12.894531 -3.40625 -11.496094 C -2.433594 -5.042969 3.578125 -0.539062 10.421875 -1.574219 C 14.074219 -2.125 17.5625 -4.324219 20.050781 -7.324219 C 23.078125 -4.121094 28.695312 -4.335938 31.027344 -4.6875 C 37.484375 -5.660156 45.621094 -10.230469 48.695312 -23.582031 C 49.324219 -26.777344 49.886719 -28.851562 49.675781 -30.25 C 49.277344 -32.894531 47.042969 -33.988281 44.789062 -33.648438 Z M 19.007812 -30.550781 L 17.027344 -18.398438 C 16.15625 -13.097656 13.378906 -11.484375 11.746094 -11.238281 C 10.035156 -10.980469 9.015625 -11.941406 8.742188 -13.730469 C 8.589844 -14.738281 8.683594 -15.707031 8.8125 -16.441406 L 11.425781 -32.824219 C 12.1875 -37.792969 14.269531 -38.742188 15.515625 -38.929688 C 16.992188 -39.15625 18.847656 -37.921875 19.25 -35.28125 C 19.425781 -34.113281 19.335938 -32.589844 19.007812 -30.550781 Z M 19.007812 -30.550781 "/></g></g></g><g fill="#ec4899" fill-opacity="0.502"><g transform="translate(238.157783, 255.140255)"><g><path d="M 39 -28.796875 C 37.472656 -22.046875 33.585938 -17.242188 28.515625 -14.488281 L 28.96875 -16.226562 C 30.25 -22.464844 31.53125 -29.261719 32.804688 -35.578125 C 33.070312 -36.96875 33.105469 -38.328125 32.894531 -39.726562 C 31.941406 -46.027344 25.921875 -50.605469 19.855469 -49.6875 C 17.757812 -49.371094 15.328125 -48.605469 13.828125 -46.949219 C 13.699219 -48.839844 10.910156 -49.929688 8.113281 -49.503906 C 5.546875 -49.117188 3.269531 -47.34375 2.59375 -43.898438 L -8.5 13.769531 C -8.734375 14.839844 -8.761719 15.71875 -8.644531 16.496094 C -8.160156 19.6875 -5.269531 20.917969 -2.472656 20.496094 C 0.09375 20.109375 2.472656 18.476562 2.972656 15.457031 L 6.410156 -3.910156 C 9.101562 -2.410156 13.917969 -2.101562 20.375 -3.078125 C 35.460938 -5.355469 45.832031 -13.046875 48.746094 -28.519531 C 48.871094 -29.253906 48.933594 -29.902344 48.851562 -30.445312 C 48.464844 -33.011719 46.050781 -34.238281 43.71875 -33.886719 C 41.617188 -33.566406 39.484375 -31.894531 39 -28.796875 Z M 8.804688 -15.964844 L 12.300781 -34.945312 C 12.808594 -37.886719 14.632812 -39.515625 16.808594 -39.84375 C 18.675781 -40.125 20.585938 -39.0625 20.878906 -37.117188 C 20.984375 -36.417969 20.9375 -35.695312 20.820312 -34.878906 C 19.804688 -28.445312 18.496094 -22.359375 17.3125 -15.976562 C 16.808594 -13.515625 14.921875 -11.796875 12.832031 -11.402344 C 10.8125 -11.097656 9.089844 -11.953125 8.761719 -14.128906 C 8.679688 -14.671875 8.664062 -15.308594 8.804688 -15.964844 Z M 8.804688 -15.964844 "/></g></g></g><g fill="#ec4899" fill-opacity="0.502"><g transform="translate(277.971876, 249.126499)"><g><path d="M 8.710938 -14.996094 L 13.644531 -40.796875 C 13.824219 -41.699219 13.863281 -42.5 13.746094 -43.277344 C 13.265625 -46.464844 10.136719 -48.21875 7.257812 -47.785156 C 5.082031 -47.457031 2.949219 -45.78125 2.328125 -42.507812 L -3.039062 -14.335938 C -3.363281 -12.773438 -3.371094 -11.261719 -3.160156 -9.863281 C -2.359375 -4.574219 1.945312 -1.328125 7.15625 -1.082031 C -2.015625 2.453125 -10.839844 7.761719 -9.394531 17.328125 C -8.253906 24.871094 -0.503906 28.789062 7.117188 27.636719 C 14.816406 26.476562 21.425781 21.261719 23.328125 11.746094 C 23.925781 8.316406 24.652344 4.707031 25.335938 1.34375 C 35.929688 -3.835938 46.445312 -11.628906 49.34375 -28.769531 C 49.484375 -29.425781 49.464844 -30.0625 49.382812 -30.605469 C 48.984375 -33.25 46.726562 -34.5 44.394531 -34.148438 C 42.296875 -33.828125 40.238281 -32.167969 39.609375 -28.96875 C 37.929688 -20.601562 33.425781 -15.148438 27.828125 -11.125 L 34.011719 -44.429688 C 34.140625 -45.164062 34.125 -45.796875 34.042969 -46.34375 C 33.5625 -49.53125 30.433594 -51.285156 27.554688 -50.851562 C 25.378906 -50.523438 23.246094 -48.847656 22.625 -45.574219 L 17.652344 -17.9375 C 15.796875 -13.363281 13.3125 -11.394531 11.210938 -11.078125 C 9.8125 -10.867188 8.828125 -11.59375 8.617188 -12.992188 C 8.535156 -13.539062 8.582031 -14.261719 8.710938 -14.996094 Z M 11.648438 7.070312 L 10.578125 12.640625 C 9.925781 15.679688 7.738281 17.523438 5.40625 17.875 C 3.617188 18.144531 2.671875 17.175781 2.460938 15.773438 C 2.390625 15.308594 2.375 14.675781 2.527344 14.09375 C 3.203125 11.207031 6.792969 9.15625 11.648438 7.070312 Z M 11.648438 7.070312 "/></g></g></g><g fill="#ec4899" fill-opacity="0.502"><g transform="translate(318.408076, 243.018777)"><g><path d="M 29.179688 -25.882812 L 39.640625 -70.890625 C 40.832031 -80.378906 29.320312 -80.230469 27.808594 -71.808594 L 19.078125 -27.460938 C 17.375 -20.839844 27.582031 -18.5625 29.179688 -25.882812 Z M 20.160156 -16.089844 C 16.660156 -15.5625 14.203125 -12.328125 14.746094 -8.75 C 15.273438 -5.25 18.585938 -2.808594 22.085938 -3.335938 C 25.664062 -3.875 28.105469 -7.1875 27.578125 -10.6875 C 27.035156 -14.265625 23.734375 -16.628906 20.160156 -16.089844 Z M 20.160156 -16.089844 "/></g></g></g><g fill="#f6f3e4" fill-opacity="1"><g transform="translate(31.928208, 281.568492)"><g><path d="M 44.707031 -74.203125 L 6.992188 -68.503906 C 2.582031 -67.679688 1.09375 -64.910156 1.46875 -62.421875 C 1.820312 -60.089844 3.871094 -58.089844 6.671875 -58.515625 L 18.726562 -60.335938 L 9.09375 -8.769531 C 8.902344 -7.945312 8.941406 -7.15625 9.035156 -6.535156 C 9.527344 -3.269531 12.675781 -1.914062 15.628906 -2.359375 C 18.273438 -2.761719 20.707031 -4.558594 21.273438 -7.667969 L 31.554688 -62.273438 L 44.230469 -64.1875 C 48.585938 -64.84375 50.054688 -67.769531 49.679688 -70.261719 C 49.324219 -72.59375 47.351562 -74.601562 44.707031 -74.203125 Z M 44.707031 -74.203125 "/></g></g></g><g fill="#f6f3e4" fill-opacity="1"><g transform="translate(78.429824, 274.544613)"><g><path d="M 40.917969 -29.246094 C 38.90625 -19.398438 35.074219 -14.761719 31.574219 -14.234375 C 30.097656 -14.011719 29.035156 -14.726562 28.859375 -15.890625 C 28.8125 -16.203125 28.832031 -16.605469 28.9375 -16.9375 L 32.578125 -36.019531 C 32.898438 -37.582031 32.84375 -39.003906 32.644531 -40.324219 C 31.703125 -46.546875 26.078125 -50.628906 19.777344 -49.675781 C 17.910156 -49.394531 16.480469 -48.859375 14.953125 -47.914062 L 17.691406 -62.960938 C 17.894531 -64.265625 18.105469 -65.492188 17.953125 -66.5 C 17.460938 -69.769531 14.613281 -71.246094 12.046875 -70.859375 C 9.011719 -70.402344 7.417969 -68.332031 6.5625 -63.984375 L -4.113281 -8.285156 C -4.339844 -7.140625 -4.34375 -6.105469 -4.203125 -5.171875 C -3.671875 -1.671875 -0.777344 0.117188 1.867188 -0.28125 C 4.121094 -0.621094 6.242188 -2.375 6.917969 -5.816406 L 12.308594 -33.832031 C 13.496094 -37.035156 15.796875 -39.691406 18.210938 -40.054688 C 19.765625 -40.289062 21.03125 -39.285156 21.242188 -37.886719 C 21.3125 -37.421875 21.304688 -36.941406 21.140625 -36.441406 L 17.917969 -19.332031 C 17.578125 -17.371094 17.527344 -15.613281 17.761719 -14.058594 C 18.867188 -6.746094 25.664062 -3.875 32.273438 -4.875 C 39.660156 -5.992188 47.441406 -11.859375 50.597656 -28.878906 C 50.671875 -29.449219 50.679688 -29.925781 50.609375 -30.390625 C 50.246094 -32.804688 47.675781 -34.007812 45.1875 -33.628906 C 43.246094 -33.335938 41.308594 -31.929688 40.917969 -29.246094 Z M 40.917969 -29.246094 "/></g></g></g><g fill="#f6f3e4" fill-opacity="1"><g transform="translate(120.110207, 268.248962)"><g><path d="M 36.035156 -27.875 C 33.976562 -18.335938 26.363281 -13.449219 19.753906 -12.449219 C 14.078125 -11.589844 10.089844 -13.773438 9.546875 -17.351562 C 9.441406 -18.050781 9.414062 -18.761719 9.609375 -19.585938 L 10.007812 -21.15625 C 12.472656 -20.097656 15.414062 -19.589844 18.523438 -20.058594 C 25.601562 -21.128906 31.152344 -26.5 32.195312 -33.816406 C 32.363281 -35.351562 32.371094 -36.863281 32.171875 -38.1875 C 31.054688 -45.574219 24.367188 -50.371094 15.578125 -49.042969 C 8.65625 -47.996094 2.503906 -42.929688 0.957031 -34.742188 L -1.625 -20.753906 C -1.964844 -18.792969 -2.070312 -16.867188 -1.800781 -15.078125 C -0.402344 -5.824219 9.175781 -1.386719 20.53125 -3.101562 C 31.339844 -4.734375 42.828125 -11.878906 45.714844 -27.503906 C 45.855469 -28.164062 45.851562 -28.71875 45.78125 -29.1875 C 45.417969 -31.597656 43.039062 -32.589844 40.707031 -32.238281 C 38.527344 -31.910156 36.371094 -30.390625 36.035156 -27.875 Z M 16.730469 -39.832031 C 18.910156 -40.160156 20.578125 -38.582031 20.917969 -36.328125 C 21.015625 -35.707031 21.03125 -35.070312 20.890625 -34.414062 C 20.5 -31.730469 18.308594 -30.445312 15.976562 -30.09375 C 14.5 -29.871094 12.972656 -29.957031 11.789062 -30.414062 L 12.71875 -35.328125 C 13.210938 -37.867188 14.941406 -39.5625 16.730469 -39.832031 Z M 16.730469 -39.832031 "/></g></g></g><g fill="#f6f3e4" fill-opacity="1"><g transform="translate(156.969346, 262.68154)"><g><path d="M 36.019531 -28.507812 C 34.214844 -20.441406 31.109375 -14.164062 27.839844 -13.671875 C 26.753906 -13.507812 26.054688 -14.433594 25.890625 -15.523438 C 25.820312 -15.988281 25.804688 -16.625 25.945312 -17.28125 L 28.605469 -30.726562 C 28.835938 -32.351562 28.9375 -33.800781 28.738281 -35.121094 C 27.621094 -42.511719 17.820312 -44.210938 13.265625 -44.875 C 13.40625 -45.53125 13.378906 -46.246094 13.28125 -46.867188 C 12.742188 -50.445312 9.097656 -52.996094 5.597656 -52.464844 C 1.007812 -51.773438 -1.101562 -47.316406 -0.433594 -42.886719 C -0.140625 -40.941406 0.867188 -39.023438 2.34375 -37.65625 L -1.015625 -21.480469 C -1.078125 -20.835938 -1.0625 -20.203125 -0.992188 -19.734375 C -0.605469 -17.167969 1.617188 -16.152344 3.792969 -16.480469 C 5.972656 -16.808594 8.039062 -18.394531 8.597656 -21.023438 L 11.1875 -33.347656 C 13.472656 -32.976562 16.433594 -32.867188 16.832031 -30.222656 C 16.890625 -29.832031 16.882812 -29.355469 16.808594 -28.785156 L 14.820312 -18.78125 C 14.46875 -16.898438 14.402344 -15.21875 14.640625 -13.664062 C 15.660156 -6.898438 21.695312 -3.277344 28.152344 -4.253906 C 36.628906 -5.53125 43.1875 -14.238281 45.789062 -28.074219 C 45.875 -28.5625 45.894531 -28.964844 45.835938 -29.351562 C 45.484375 -31.6875 42.679688 -32.855469 40.191406 -32.476562 C 38.171875 -32.171875 36.367188 -30.945312 36.019531 -28.507812 Z M 36.019531 -28.507812 "/></g></g></g><g fill="#f6f3e4" fill-opacity="1"><g transform="translate(193.750725, 257.125864)"><g><path d="M 44.789062 -33.648438 C 42.609375 -33.320312 40.398438 -31.632812 39.914062 -28.539062 C 38.324219 -18.515625 33.90625 -14.585938 30.40625 -14.058594 C 29.085938 -13.859375 28.203125 -14.441406 28.015625 -15.683594 C 27.921875 -16.308594 27.957031 -17.109375 28.0625 -18 L 32.96875 -44.511719 C 33.136719 -45.492188 33.164062 -46.371094 33.046875 -47.148438 C 32.527344 -50.570312 29.460938 -51.933594 26.582031 -51.5 C 24.40625 -51.171875 22.300781 -49.820312 21.351562 -47.6875 C 19.566406 -48.453125 16.355469 -49.160156 12.390625 -48.5625 C 7.257812 -47.785156 2.082031 -44.140625 0.886719 -37.835938 L -3.261719 -15.8125 C -3.519531 -14.34375 -3.617188 -12.894531 -3.40625 -11.496094 C -2.433594 -5.042969 3.578125 -0.539062 10.421875 -1.574219 C 14.074219 -2.125 17.5625 -4.324219 20.050781 -7.324219 C 23.078125 -4.121094 28.695312 -4.335938 31.027344 -4.6875 C 37.484375 -5.660156 45.621094 -10.230469 48.695312 -23.582031 C 49.324219 -26.777344 49.886719 -28.851562 49.675781 -30.25 C 49.277344 -32.894531 47.042969 -33.988281 44.789062 -33.648438 Z M 19.007812 -30.550781 L 17.027344 -18.398438 C 16.15625 -13.097656 13.378906 -11.484375 11.746094 -11.238281 C 10.035156 -10.980469 9.015625 -11.941406 8.742188 -13.730469 C 8.589844 -14.738281 8.683594 -15.707031 8.8125 -16.441406 L 11.425781 -32.824219 C 12.1875 -37.792969 14.269531 -38.742188 15.515625 -38.929688 C 16.992188 -39.15625 18.847656 -37.921875 19.25 -35.28125 C 19.425781 -34.113281 19.335938 -32.589844 19.007812 -30.550781 Z M 19.007812 -30.550781 "/></g></g></g><g fill="#f6f3e4" fill-opacity="1"><g transform="translate(234.575713, 250.959417)"><g><path d="M 39 -28.796875 C 37.472656 -22.046875 33.585938 -17.242188 28.515625 -14.488281 L 28.96875 -16.226562 C 30.25 -22.464844 31.53125 -29.261719 32.804688 -35.578125 C 33.070312 -36.96875 33.105469 -38.328125 32.894531 -39.726562 C 31.941406 -46.027344 25.921875 -50.605469 19.855469 -49.6875 C 17.757812 -49.371094 15.328125 -48.605469 13.828125 -46.949219 C 13.699219 -48.839844 10.910156 -49.929688 8.113281 -49.503906 C 5.546875 -49.117188 3.269531 -47.34375 2.59375 -43.898438 L -8.5 13.769531 C -8.734375 14.839844 -8.761719 15.71875 -8.644531 16.496094 C -8.160156 19.6875 -5.269531 20.917969 -2.472656 20.496094 C 0.09375 20.109375 2.472656 18.476562 2.972656 15.457031 L 6.410156 -3.910156 C 9.101562 -2.410156 13.917969 -2.101562 20.375 -3.078125 C 35.460938 -5.355469 45.832031 -13.046875 48.746094 -28.519531 C 48.871094 -29.253906 48.933594 -29.902344 48.851562 -30.445312 C 48.464844 -33.011719 46.050781 -34.238281 43.71875 -33.886719 C 41.617188 -33.566406 39.484375 -31.894531 39 -28.796875 Z M 8.804688 -15.964844 L 12.300781 -34.945312 C 12.808594 -37.886719 14.632812 -39.515625 16.808594 -39.84375 C 18.675781 -40.125 20.585938 -39.0625 20.878906 -37.117188 C 20.984375 -36.417969 20.9375 -35.695312 20.820312 -34.878906 C 19.804688 -28.445312 18.496094 -22.359375 17.3125 -15.976562 C 16.808594 -13.515625 14.921875 -11.796875 12.832031 -11.402344 C 10.8125 -11.097656 9.089844 -11.953125 8.761719 -14.128906 C 8.679688 -14.671875 8.664062 -15.308594 8.804688 -15.964844 Z M 8.804688 -15.964844 "/></g></g></g><g fill="#f6f3e4" fill-opacity="1"><g transform="translate(274.389805, 244.945661)"><g><path d="M 8.710938 -14.996094 L 13.644531 -40.796875 C 13.824219 -41.699219 13.863281 -42.5 13.746094 -43.277344 C 13.265625 -46.464844 10.136719 -48.21875 7.257812 -47.785156 C 5.082031 -47.457031 2.949219 -45.78125 2.328125 -42.507812 L -3.039062 -14.335938 C -3.363281 -12.773438 -3.371094 -11.261719 -3.160156 -9.863281 C -2.359375 -4.574219 1.945312 -1.328125 7.15625 -1.082031 C -2.015625 2.453125 -10.839844 7.761719 -9.394531 17.328125 C -8.253906 24.871094 -0.503906 28.789062 7.117188 27.636719 C 14.816406 26.476562 21.425781 21.261719 23.328125 11.746094 C 23.925781 8.316406 24.652344 4.707031 25.335938 1.34375 C 35.929688 -3.835938 46.445312 -11.628906 49.34375 -28.769531 C 49.484375 -29.425781 49.464844 -30.0625 49.382812 -30.605469 C 48.984375 -33.25 46.726562 -34.5 44.394531 -34.148438 C 42.296875 -33.828125 40.238281 -32.167969 39.609375 -28.96875 C 37.929688 -20.601562 33.425781 -15.148438 27.828125 -11.125 L 34.011719 -44.429688 C 34.140625 -45.164062 34.125 -45.796875 34.042969 -46.34375 C 33.5625 -49.53125 30.433594 -51.285156 27.554688 -50.851562 C 25.378906 -50.523438 23.246094 -48.847656 22.625 -45.574219 L 17.652344 -17.9375 C 15.796875 -13.363281 13.3125 -11.394531 11.210938 -11.078125 C 9.8125 -10.867188 8.828125 -11.59375 8.617188 -12.992188 C 8.535156 -13.539062 8.582031 -14.261719 8.710938 -14.996094 Z M 11.648438 7.070312 L 10.578125 12.640625 C 9.925781 15.679688 7.738281 17.523438 5.40625 17.875 C 3.617188 18.144531 2.671875 17.175781 2.460938 15.773438 C 2.390625 15.308594 2.375 14.675781 2.527344 14.09375 C 3.203125 11.207031 6.792969 9.15625 11.648438 7.070312 Z M 11.648438 7.070312 "/></g></g></g><g fill="#f6f3e4" fill-opacity="1"><g transform="translate(314.826006, 238.837939)"><g><path d="M 29.179688 -25.882812 L 39.640625 -70.890625 C 40.832031 -80.378906 29.320312 -80.230469 27.808594 -71.808594 L 19.078125 -27.460938 C 17.375 -20.839844 27.582031 -18.5625 29.179688 -25.882812 Z M 20.160156 -16.089844 C 16.660156 -15.5625 14.203125 -12.328125 14.746094 -8.75 C 15.273438 -5.25 18.585938 -2.808594 22.085938 -3.335938 C 25.664062 -3.875 28.105469 -7.1875 27.578125 -10.6875 C 27.035156 -14.265625 23.734375 -16.628906 20.160156 -16.089844 Z M 20.160156 -16.089844 "/></g></g></g></svg>