<svg id="visual" viewBox="0 0 960 300" width="960" height="300" xmlns="http://www.w3.org/2000/svg" xmlns:xlink="http://www.w3.org/1999/xlink" version="1.1"><path d="M0 161L32 163.7C64 166.3 128 171.7 192 168.3C256 165 320 153 384 147C448 141 512 141 576 142.7C640 144.3 704 147.7 768 150.7C832 153.7 896 156.3 928 157.7L960 159L960 301L928 301C896 301 832 301 768 301C704 301 640 301 576 301C512 301 448 301 384 301C320 301 256 301 192 301C128 301 64 301 32 301L0 301Z" fill="#ec4899"></path><path d="M0 194L32 195.2C64 196.3 128 198.7 192 199.7C256 200.7 320 200.3 384 199.5C448 198.7 512 197.3 576 198.8C640 200.3 704 204.7 768 204.8C832 205 896 201 928 199L960 197L960 301L928 301C896 301 832 301 768 301C704 301 640 301 576 301C512 301 448 301 384 301C320 301 256 301 192 301C128 301 64 301 32 301L0 301Z" fill="#dda5e6"></path><path d="M0 240L32 238.7C64 237.3 128 234.7 192 235.8C256 237 320 242 384 245.7C448 249.3 512 251.7 576 252.2C640 252.7 704 251.3 768 248C832 244.7 896 239.3 928 236.7L960 234L960 301L928 301C896 301 832 301 768 301C704 301 640 301 576 301C512 301 448 301 384 301C320 301 256 301 192 301C128 301 64 301 32 301L0 301Z" fill="#e8e8fd"></path></svg>