<svg id="visual" viewBox="0 0 900 100" width="900" height="100" xmlns="http://www.w3.org/2000/svg" xmlns:xlink="http://www.w3.org/1999/xlink" version="1.1"><path d="M0 91L16.7 81.8C33.3 72.7 66.7 54.3 100 49.3C133.3 44.3 166.7 52.7 200 59.5C233.3 66.3 266.7 71.7 300 67.8C333.3 64 366.7 51 400 46.3C433.3 41.7 466.7 45.3 500 49C533.3 52.7 566.7 56.3 600 63.2C633.3 70 666.7 80 700 78.2C733.3 76.3 766.7 62.7 800 52.3C833.3 42 866.7 35 883.3 31.5L900 28" fill="none" stroke-linecap="round" stroke-linejoin="miter" stroke="#ec4899" stroke-width="10"></path></svg>