<svg id="visual" viewBox="0 0 745 965" width="745" height="965" xmlns="http://www.w3.org/2000/svg" xmlns:xlink="http://www.w3.org/1999/xlink" version="1.1"><path d="M0 617L15.5 612.2C31 607.3 62 597.7 93 597.8C124 598 155 608 186 614.3C217 620.7 248 623.3 279.2 615.5C310.3 607.7 341.7 589.3 372.8 589.2C404 589 435 607 466 609.3C497 611.7 528 598.3 559 597.7C590 597 621 609 652 618.3C683 627.7 714 634.3 729.5 637.7L745 641L745 966L729.5 966C714 966 683 966 652 966C621 966 590 966 559 966C528 966 497 966 466 966C435 966 404 966 372.8 966C341.7 966 310.3 966 279.2 966C248 966 217 966 186 966C155 966 124 966 93 966C62 966 31 966 15.5 966L0 966Z" fill="#fff3f2"></path><path d="M0 722L15.5 711.2C31 700.3 62 678.7 93 668.3C124 658 155 659 186 668.3C217 677.7 248 695.3 279.2 690.2C310.3 685 341.7 657 372.8 650.7C404 644.3 435 659.7 466 666.2C497 672.7 528 670.3 559 665.7C590 661 621 654 652 660.3C683 666.7 714 686.3 729.5 696.2L745 706L745 966L729.5 966C714 966 683 966 652 966C621 966 590 966 559 966C528 966 497 966 466 966C435 966 404 966 372.8 966C341.7 966 310.3 966 279.2 966C248 966 217 966 186 966C155 966 124 966 93 966C62 966 31 966 15.5 966L0 966Z" fill="#ffd4d4"></path><path d="M0 690L15.5 689.7C31 689.3 62 688.7 93 699.5C124 710.3 155 732.7 186 737.7C217 742.7 248 730.3 279.2 719.7C310.3 709 341.7 700 372.8 708.3C404 716.7 435 742.3 466 752.2C497 762 528 756 559 748.7C590 741.3 621 732.7 652 732.3C683 732 714 740 729.5 744L745 748L745 966L729.5 966C714 966 683 966 652 966C621 966 590 966 559 966C528 966 497 966 466 966C435 966 404 966 372.8 966C341.7 966 310.3 966 279.2 966C248 966 217 966 186 966C155 966 124 966 93 966C62 966 31 966 15.5 966L0 966Z" fill="#ffb4bd"></path><path d="M0 819L15.5 807.3C31 795.7 62 772.3 93 765.7C124 759 155 769 186 775.3C217 781.7 248 784.3 279.2 784.7C310.3 785 341.7 783 372.8 784.2C404 785.3 435 789.7 466 784.3C497 779 528 764 559 767C590 770 621 791 652 795.2C683 799.3 714 786.7 729.5 780.3L745 774L745 966L729.5 966C714 966 683 966 652 966C621 966 590 966 559 966C528 966 497 966 466 966C435 966 404 966 372.8 966C341.7 966 310.3 966 279.2 966C248 966 217 966 186 966C155 966 124 966 93 966C62 966 31 966 15.5 966L0 966Z" fill="#fd93ab"></path><path d="M0 823L15.5 831.2C31 839.3 62 855.7 93 857.7C124 859.7 155 847.3 186 842.8C217 838.3 248 841.7 279.2 839.7C310.3 837.7 341.7 830.3 372.8 833.8C404 837.3 435 851.7 466 858.3C497 865 528 864 559 857.2C590 850.3 621 837.7 652 834.8C683 832 714 839 729.5 842.5L745 846L745 966L729.5 966C714 966 683 966 652 966C621 966 590 966 559 966C528 966 497 966 466 966C435 966 404 966 372.8 966C341.7 966 310.3 966 279.2 966C248 966 217 966 186 966C155 966 124 966 93 966C62 966 31 966 15.5 966L0 966Z" fill="#f6709f"></path><path d="M0 870L15.5 872.7C31 875.3 62 880.7 93 888.2C124 895.7 155 905.3 186 908.5C217 911.7 248 908.3 279.2 908.3C310.3 908.3 341.7 911.7 372.8 912.7C404 913.7 435 912.3 466 911.3C497 910.3 528 909.7 559 909.5C590 909.3 621 909.7 652 908C683 906.3 714 902.7 729.5 900.8L745 899L745 966L729.5 966C714 966 683 966 652 966C621 966 590 966 559 966C528 966 497 966 466 966C435 966 404 966 372.8 966C341.7 966 310.3 966 279.2 966C248 966 217 966 186 966C155 966 124 966 93 966C62 966 31 966 15.5 966L0 966Z" fill="#ec4899"></path></svg>