<svg id="visual" viewBox="0 0 900 100" width="900" height="100" xmlns="http://www.w3.org/2000/svg" xmlns:xlink="http://www.w3.org/1999/xlink" version="1.1"><path d="M0 81L10.7 81.8C21.3 82.7 42.7 84.3 64.2 85.2C85.7 86 107.3 86 128.8 83.8C150.3 81.7 171.7 77.3 193 76.5C214.3 75.7 235.7 78.3 257 79.7C278.3 81 299.7 81 321.2 79.3C342.7 77.7 364.3 74.3 385.8 73.3C407.3 72.3 428.7 73.7 450 76C471.3 78.3 492.7 81.7 514.2 82.8C535.7 84 557.3 83 578.8 82.8C600.3 82.7 621.7 83.3 643 82.3C664.3 81.3 685.7 78.7 707 77C728.3 75.3 749.7 74.7 771.2 76.7C792.7 78.7 814.3 83.3 835.8 82.8C857.3 82.3 878.7 76.7 889.3 73.8L900 71L900 0L889.3 0C878.7 0 857.3 0 835.8 0C814.3 0 792.7 0 771.2 0C749.7 0 728.3 0 707 0C685.7 0 664.3 0 643 0C621.7 0 600.3 0 578.8 0C557.3 0 535.7 0 514.2 0C492.7 0 471.3 0 450 0C428.7 0 407.3 0 385.8 0C364.3 0 342.7 0 321.2 0C299.7 0 278.3 0 257 0C235.7 0 214.3 0 193 0C171.7 0 150.3 0 128.8 0C107.3 0 85.7 0 64.2 0C42.7 0 21.3 0 10.7 0L0 0Z" fill="#eab308"></path><path d="M0 76L10.7 73.5C21.3 71 42.7 66 64.2 65.8C85.7 65.7 107.3 70.3 128.8 70.3C150.3 70.3 171.7 65.7 193 65.3C214.3 65 235.7 69 257 70.7C278.3 72.3 299.7 71.7 321.2 70.3C342.7 69 364.3 67 385.8 65.5C407.3 64 428.7 63 450 61.8C471.3 60.7 492.7 59.3 514.2 59C535.7 58.7 557.3 59.3 578.8 61.5C600.3 63.7 621.7 67.3 643 67.5C664.3 67.7 685.7 64.3 707 64.3C728.3 64.3 749.7 67.7 771.2 69.5C792.7 71.3 814.3 71.7 835.8 71C857.3 70.3 878.7 68.7 889.3 67.8L900 67L900 0L889.3 0C878.7 0 857.3 0 835.8 0C814.3 0 792.7 0 771.2 0C749.7 0 728.3 0 707 0C685.7 0 664.3 0 643 0C621.7 0 600.3 0 578.8 0C557.3 0 535.7 0 514.2 0C492.7 0 471.3 0 450 0C428.7 0 407.3 0 385.8 0C364.3 0 342.7 0 321.2 0C299.7 0 278.3 0 257 0C235.7 0 214.3 0 193 0C171.7 0 150.3 0 128.8 0C107.3 0 85.7 0 64.2 0C42.7 0 21.3 0 10.7 0L0 0Z" fill="#edbf3f"></path><path d="M0 49L10.7 50.3C21.3 51.7 42.7 54.3 64.2 54.5C85.7 54.7 107.3 52.3 128.8 52.8C150.3 53.3 171.7 56.7 193 56.2C214.3 55.7 235.7 51.3 257 50.7C278.3 50 299.7 53 321.2 53.3C342.7 53.7 364.3 51.3 385.8 52.8C407.3 54.3 428.7 59.7 450 61.5C471.3 63.3 492.7 61.7 514.2 58.7C535.7 55.7 557.3 51.3 578.8 51C600.3 50.7 621.7 54.3 643 55.3C664.3 56.3 685.7 54.7 707 54.3C728.3 54 749.7 55 771.2 55.7C792.7 56.3 814.3 56.7 835.8 58C857.3 59.3 878.7 61.7 889.3 62.8L900 64L900 0L889.3 0C878.7 0 857.3 0 835.8 0C814.3 0 792.7 0 771.2 0C749.7 0 728.3 0 707 0C685.7 0 664.3 0 643 0C621.7 0 600.3 0 578.8 0C557.3 0 535.7 0 514.2 0C492.7 0 471.3 0 450 0C428.7 0 407.3 0 385.8 0C364.3 0 342.7 0 321.2 0C299.7 0 278.3 0 257 0C235.7 0 214.3 0 193 0C171.7 0 150.3 0 128.8 0C107.3 0 85.7 0 64.2 0C42.7 0 21.3 0 10.7 0L0 0Z" fill="#f0ca61"></path><path d="M0 53L10.7 52.2C21.3 51.3 42.7 49.7 64.2 49.8C85.7 50 107.3 52 128.8 53.2C150.3 54.3 171.7 54.7 193 54C214.3 53.3 235.7 51.7 257 50.5C278.3 49.3 299.7 48.7 321.2 47.8C342.7 47 364.3 46 385.8 45.2C407.3 44.3 428.7 43.7 450 44.2C471.3 44.7 492.7 46.3 514.2 47.8C535.7 49.3 557.3 50.7 578.8 49C600.3 47.3 621.7 42.7 643 40.3C664.3 38 685.7 38 707 40.3C728.3 42.7 749.7 47.3 771.2 48.3C792.7 49.3 814.3 46.7 835.8 45.8C857.3 45 878.7 46 889.3 46.5L900 47L900 0L889.3 0C878.7 0 857.3 0 835.8 0C814.3 0 792.7 0 771.2 0C749.7 0 728.3 0 707 0C685.7 0 664.3 0 643 0C621.7 0 600.3 0 578.8 0C557.3 0 535.7 0 514.2 0C492.7 0 471.3 0 450 0C428.7 0 407.3 0 385.8 0C364.3 0 342.7 0 321.2 0C299.7 0 278.3 0 257 0C235.7 0 214.3 0 193 0C171.7 0 150.3 0 128.8 0C107.3 0 85.7 0 64.2 0C42.7 0 21.3 0 10.7 0L0 0Z" fill="#f3d580"></path><path d="M0 39L10.7 37.2C21.3 35.3 42.7 31.7 64.2 30.7C85.7 29.7 107.3 31.3 128.8 33.7C150.3 36 171.7 39 193 39.7C214.3 40.3 235.7 38.7 257 37.8C278.3 37 299.7 37 321.2 36.5C342.7 36 364.3 35 385.8 33.5C407.3 32 428.7 30 450 29.2C471.3 28.3 492.7 28.7 514.2 30.5C535.7 32.3 557.3 35.7 578.8 35.5C600.3 35.3 621.7 31.7 643 29.5C664.3 27.3 685.7 26.7 707 26.2C728.3 25.7 749.7 25.3 771.2 25.3C792.7 25.3 814.3 25.7 835.8 26.7C857.3 27.7 878.7 29.3 889.3 30.2L900 31L900 0L889.3 0C878.7 0 857.3 0 835.8 0C814.3 0 792.7 0 771.2 0C749.7 0 728.3 0 707 0C685.7 0 664.3 0 643 0C621.7 0 600.3 0 578.8 0C557.3 0 535.7 0 514.2 0C492.7 0 471.3 0 450 0C428.7 0 407.3 0 385.8 0C364.3 0 342.7 0 321.2 0C299.7 0 278.3 0 257 0C235.7 0 214.3 0 193 0C171.7 0 150.3 0 128.8 0C107.3 0 85.7 0 64.2 0C42.7 0 21.3 0 10.7 0L0 0Z" fill="#f6e09e"></path><path d="M0 24L10.7 25C21.3 26 42.7 28 64.2 26.8C85.7 25.7 107.3 21.3 128.8 19.5C150.3 17.7 171.7 18.3 193 19C214.3 19.7 235.7 20.3 257 20.5C278.3 20.7 299.7 20.3 321.2 21.3C342.7 22.3 364.3 24.7 385.8 24C407.3 23.3 428.7 19.7 450 18.5C471.3 17.3 492.7 18.7 514.2 19C535.7 19.3 557.3 18.7 578.8 19C600.3 19.3 621.7 20.7 643 21.7C664.3 22.7 685.7 23.3 707 24.2C728.3 25 749.7 26 771.2 24.5C792.7 23 814.3 19 835.8 17.5C857.3 16 878.7 17 889.3 17.5L900 18L900 0L889.3 0C878.7 0 857.3 0 835.8 0C814.3 0 792.7 0 771.2 0C749.7 0 728.3 0 707 0C685.7 0 664.3 0 643 0C621.7 0 600.3 0 578.8 0C557.3 0 535.7 0 514.2 0C492.7 0 471.3 0 450 0C428.7 0 407.3 0 385.8 0C364.3 0 342.7 0 321.2 0C299.7 0 278.3 0 257 0C235.7 0 214.3 0 193 0C171.7 0 150.3 0 128.8 0C107.3 0 85.7 0 64.2 0C42.7 0 21.3 0 10.7 0L0 0Z" fill="#f9eabc"></path><path d="M0 11L10.7 11C21.3 11 42.7 11 64.2 11.8C85.7 12.7 107.3 14.3 128.8 13.7C150.3 13 171.7 10 193 8.8C214.3 7.7 235.7 8.3 257 7.8C278.3 7.3 299.7 5.7 321.2 7.2C342.7 8.7 364.3 13.3 385.8 15.5C407.3 17.7 428.7 17.3 450 16.5C471.3 15.7 492.7 14.3 514.2 14.5C535.7 14.7 557.3 16.3 578.8 15.5C600.3 14.7 621.7 11.3 643 9C664.3 6.7 685.7 5.3 707 6.3C728.3 7.3 749.7 10.7 771.2 11.2C792.7 11.7 814.3 9.3 835.8 9.7C857.3 10 878.7 13 889.3 14.5L900 16L900 0L889.3 0C878.7 0 857.3 0 835.8 0C814.3 0 792.7 0 771.2 0C749.7 0 728.3 0 707 0C685.7 0 664.3 0 643 0C621.7 0 600.3 0 578.8 0C557.3 0 535.7 0 514.2 0C492.7 0 471.3 0 450 0C428.7 0 407.3 0 385.8 0C364.3 0 342.7 0 321.2 0C299.7 0 278.3 0 257 0C235.7 0 214.3 0 193 0C171.7 0 150.3 0 128.8 0C107.3 0 85.7 0 64.2 0C42.7 0 21.3 0 10.7 0L0 0Z" fill="#fcf4da"></path></svg>