<svg id="visual" viewBox="0 0 900 100" width="900" height="100" xmlns="http://www.w3.org/2000/svg" xmlns:xlink="http://www.w3.org/1999/xlink" version="1.1"><path d="M0 21L12.5 20.3C25 19.7 50 18.3 75 17.2C100 16 125 15 150 18.3C175 21.7 200 29.3 225 29.8C250 30.3 275 23.7 300 21C325 18.3 350 19.7 375 22.2C400 24.7 425 28.3 450 29.5C475 30.7 500 29.3 525 29.8C550 30.3 575 32.7 600 32.5C625 32.3 650 29.7 675 28C700 26.3 725 25.7 750 26.2C775 26.7 800 28.3 825 27C850 25.7 875 21.3 887.5 19.2L900 17L900 0L887.5 0C875 0 850 0 825 0C800 0 775 0 750 0C725 0 700 0 675 0C650 0 625 0 600 0C575 0 550 0 525 0C500 0 475 0 450 0C425 0 400 0 375 0C350 0 325 0 300 0C275 0 250 0 225 0C200 0 175 0 150 0C125 0 100 0 75 0C50 0 25 0 12.5 0L0 0Z" fill="#e0f8e1"></path><path d="M0 34L12.5 33.5C25 33 50 32 75 29.8C100 27.7 125 24.3 150 26.5C175 28.7 200 36.3 225 36.5C250 36.7 275 29.3 300 26.7C325 24 350 26 375 30C400 34 425 40 450 42.3C475 44.7 500 43.3 525 42.7C550 42 575 42 600 40.7C625 39.3 650 36.7 675 35.2C700 33.7 725 33.3 750 35.2C775 37 800 41 825 39.5C850 38 875 31 887.5 27.5L900 24L900 15L887.5 17.2C875 19.3 850 23.7 825 25C800 26.3 775 24.7 750 24.2C725 23.7 700 24.3 675 26C650 27.7 625 30.3 600 30.5C575 30.7 550 28.3 525 27.8C500 27.3 475 28.7 450 27.5C425 26.3 400 22.7 375 20.2C350 17.7 325 16.3 300 19C275 21.7 250 28.3 225 27.8C200 27.3 175 19.7 150 16.3C125 13 100 14 75 15.2C50 16.3 25 17.7 12.5 18.3L0 19Z" fill="#a8e7d5"></path><path d="M0 62L12.5 62C25 62 50 62 75 59.8C100 57.7 125 53.3 150 54.7C175 56 200 63 225 63.7C250 64.3 275 58.7 300 56.8C325 55 350 57 375 59.3C400 61.7 425 64.3 450 63.8C475 63.3 500 59.7 525 57.3C550 55 575 54 600 55C625 56 650 59 675 59.7C700 60.3 725 58.7 750 59.5C775 60.3 800 63.7 825 63.2C850 62.7 875 58.3 887.5 56.2L900 54L900 22L887.5 25.5C875 29 850 36 825 37.5C800 39 775 35 750 33.2C725 31.3 700 31.7 675 33.2C650 34.7 625 37.3 600 38.7C575 40 550 40 525 40.7C500 41.3 475 42.7 450 40.3C425 38 400 32 375 28C350 24 325 22 300 24.7C275 27.3 250 34.7 225 34.5C200 34.3 175 26.7 150 24.5C125 22.3 100 25.7 75 27.8C50 30 25 31 12.5 31.5L0 32Z" fill="#65d3db"></path><path d="M0 71L12.5 71C25 71 50 71 75 68.8C100 66.7 125 62.3 150 63.3C175 64.3 200 70.7 225 71.5C250 72.3 275 67.7 300 66.3C325 65 350 67 375 68.8C400 70.7 425 72.3 450 71.5C475 70.7 500 67.3 525 65.5C550 63.7 575 63.3 600 64C625 64.7 650 66.3 675 66C700 65.7 725 63.3 750 64.5C775 65.7 800 70.3 825 70.5C850 70.7 875 66.3 887.5 64.2L900 62L900 52L887.5 54.2C875 56.3 850 60.7 825 61.2C800 61.7 775 58.3 750 57.5C725 56.7 700 58.3 675 57.7C650 57 625 54 600 53C575 52 550 53 525 55.3C500 57.7 475 61.3 450 61.8C425 62.3 400 59.7 375 57.3C350 55 325 53 300 54.8C275 56.7 250 62.3 225 61.7C200 61 175 54 150 52.7C125 51.3 100 55.7 75 57.8C50 60 25 60 12.5 60L0 60Z" fill="#00bbe8"></path><path d="M0 78L12.5 78.7C25 79.3 50 80.7 75 78.8C100 77 125 72 150 71.8C175 71.7 200 76.3 225 77.3C250 78.3 275 75.7 300 74.8C325 74 350 75 375 76.3C400 77.7 425 79.3 450 79.3C475 79.3 500 77.7 525 75.5C550 73.3 575 70.7 600 71.3C625 72 650 76 675 76.7C700 77.3 725 74.7 750 74.5C775 74.3 800 76.7 825 76.3C850 76 875 73 887.5 71.5L900 70L900 60L887.5 62.2C875 64.3 850 68.7 825 68.5C800 68.3 775 63.7 750 62.5C725 61.3 700 63.7 675 64C650 64.3 625 62.7 600 62C575 61.3 550 61.7 525 63.5C500 65.3 475 68.7 450 69.5C425 70.3 400 68.7 375 66.8C350 65 325 63 300 64.3C275 65.7 250 70.3 225 69.5C200 68.7 175 62.3 150 61.3C125 60.3 100 64.7 75 66.8C50 69 25 69 12.5 69L0 69Z" fill="#009ef7"></path><path d="M0 89L12.5 90C25 91 50 93 75 91.5C100 90 125 85 150 84.7C175 84.3 200 88.7 225 89.8C250 91 275 89 300 87C325 85 350 83 375 83.8C400 84.7 425 88.3 450 89.2C475 90 500 88 525 86.3C550 84.7 575 83.3 600 84C625 84.7 650 87.3 675 87.5C700 87.7 725 85.3 750 84.3C775 83.3 800 83.7 825 82.7C850 81.7 875 79.3 887.5 78.2L900 77L900 68L887.5 69.5C875 71 850 74 825 74.3C800 74.7 775 72.3 750 72.5C725 72.7 700 75.3 675 74.7C650 74 625 70 600 69.3C575 68.7 550 71.3 525 73.5C500 75.7 475 77.3 450 77.3C425 77.3 400 75.7 375 74.3C350 73 325 72 300 72.8C275 73.7 250 76.3 225 75.3C200 74.3 175 69.7 150 69.8C125 70 100 75 75 76.8C50 78.7 25 77.3 12.5 76.7L0 76Z" fill="#007afa"></path><path d="M0 101L12.5 101C25 101 50 101 75 101C100 101 125 101 150 101C175 101 200 101 225 101C250 101 275 101 300 101C325 101 350 101 375 101C400 101 425 101 450 101C475 101 500 101 525 101C550 101 575 101 600 101C625 101 650 101 675 101C700 101 725 101 750 101C775 101 800 101 825 101C850 101 875 101 887.5 101L900 101L900 75L887.5 76.2C875 77.3 850 79.7 825 80.7C800 81.7 775 81.3 750 82.3C725 83.3 700 85.7 675 85.5C650 85.3 625 82.7 600 82C575 81.3 550 82.7 525 84.3C500 86 475 88 450 87.2C425 86.3 400 82.7 375 81.8C350 81 325 83 300 85C275 87 250 89 225 87.8C200 86.7 175 82.3 150 82.7C125 83 100 88 75 89.5C50 91 25 89 12.5 88L0 87Z" fill="#4f46e5"></path></svg>