<svg id="visual" viewBox="0 0 900 100" width="900" height="100" xmlns="http://www.w3.org/2000/svg" xmlns:xlink="http://www.w3.org/1999/xlink" version="1.1"><path d="M0 86L6.5 83.7C13 81.3 26 76.7 39 77.7C52 78.7 65 85.3 78 88.2C91 91 104 90 117.2 90.2C130.3 90.3 143.7 91.7 156.8 90.5C170 89.3 183 85.7 196 81.8C209 78 222 74 235 76C248 78 261 86 274 90C287 94 300 94 313 92.2C326 90.3 339 86.7 352 86.5C365 86.3 378 89.7 391 87.3C404 85 417 77 430.2 73.7C443.3 70.3 456.7 71.7 469.8 76.3C483 81 496 89 509 93C522 97 535 97 548 94.7C561 92.3 574 87.7 587 84.3C600 81 613 79 626 76.7C639 74.3 652 71.7 665 73.7C678 75.7 691 82.3 704 83C717 83.7 730 78.3 743.2 79.3C756.3 80.3 769.7 87.7 782.8 89.5C796 91.3 809 87.7 822 86.7C835 85.7 848 87.3 861 88.8C874 90.3 887 91.7 893.5 92.3L900 93L900 0L893.5 0C887 0 874 0 861 0C848 0 835 0 822 0C809 0 796 0 782.8 0C769.7 0 756.3 0 743.2 0C730 0 717 0 704 0C691 0 678 0 665 0C652 0 639 0 626 0C613 0 600 0 587 0C574 0 561 0 548 0C535 0 522 0 509 0C496 0 483 0 469.8 0C456.7 0 443.3 0 430.2 0C417 0 404 0 391 0C378 0 365 0 352 0C339 0 326 0 313 0C300 0 287 0 274 0C261 0 248 0 235 0C222 0 209 0 196 0C183 0 170 0 156.8 0C143.7 0 130.3 0 117.2 0C104 0 91 0 78 0C65 0 52 0 39 0C26 0 13 0 6.5 0L0 0Z" fill="#f6d32d"></path><path d="M0 63L6.5 65.2C13 67.3 26 71.7 39 71.3C52 71 65 66 78 64.3C91 62.7 104 64.3 117.2 66.7C130.3 69 143.7 72 156.8 74.2C170 76.3 183 77.7 196 76.5C209 75.3 222 71.7 235 71.7C248 71.7 261 75.3 274 74.2C287 73 300 67 313 66.3C326 65.7 339 70.3 352 72.7C365 75 378 75 391 74.3C404 73.7 417 72.3 430.2 72.5C443.3 72.7 456.7 74.3 469.8 75C483 75.7 496 75.3 509 73.8C522 72.3 535 69.7 548 66.8C561 64 574 61 587 60.7C600 60.3 613 62.7 626 63.8C639 65 652 65 665 67C678 69 691 73 704 72C717 71 730 65 743.2 61.7C756.3 58.3 769.7 57.7 782.8 59C796 60.3 809 63.7 822 66.7C835 69.7 848 72.3 861 71.2C874 70 887 65 893.5 62.5L900 60L900 0L893.5 0C887 0 874 0 861 0C848 0 835 0 822 0C809 0 796 0 782.8 0C769.7 0 756.3 0 743.2 0C730 0 717 0 704 0C691 0 678 0 665 0C652 0 639 0 626 0C613 0 600 0 587 0C574 0 561 0 548 0C535 0 522 0 509 0C496 0 483 0 469.8 0C456.7 0 443.3 0 430.2 0C417 0 404 0 391 0C378 0 365 0 352 0C339 0 326 0 313 0C300 0 287 0 274 0C261 0 248 0 235 0C222 0 209 0 196 0C183 0 170 0 156.8 0C143.7 0 130.3 0 117.2 0C104 0 91 0 78 0C65 0 52 0 39 0C26 0 13 0 6.5 0L0 0Z" fill="#f8d953"></path><path d="M0 68L6.5 66.7C13 65.3 26 62.7 39 61C52 59.3 65 58.7 78 60.7C91 62.7 104 67.3 117.2 65.8C130.3 64.3 143.7 56.7 156.8 54.7C170 52.7 183 56.3 196 59.8C209 63.3 222 66.7 235 65.8C248 65 261 60 274 56.3C287 52.7 300 50.3 313 50.3C326 50.3 339 52.7 352 52.5C365 52.3 378 49.7 391 51.3C404 53 417 59 430.2 60C443.3 61 456.7 57 469.8 58.2C483 59.3 496 65.7 509 66.7C522 67.7 535 63.3 548 60.8C561 58.3 574 57.7 587 57C600 56.3 613 55.7 626 55.7C639 55.7 652 56.3 665 55.2C678 54 691 51 704 50.7C717 50.3 730 52.7 743.2 52.8C756.3 53 769.7 51 782.8 50.3C796 49.7 809 50.3 822 51.7C835 53 848 55 861 57.3C874 59.7 887 62.3 893.5 63.7L900 65L900 0L893.5 0C887 0 874 0 861 0C848 0 835 0 822 0C809 0 796 0 782.8 0C769.7 0 756.3 0 743.2 0C730 0 717 0 704 0C691 0 678 0 665 0C652 0 639 0 626 0C613 0 600 0 587 0C574 0 561 0 548 0C535 0 522 0 509 0C496 0 483 0 469.8 0C456.7 0 443.3 0 430.2 0C417 0 404 0 391 0C378 0 365 0 352 0C339 0 326 0 313 0C300 0 287 0 274 0C261 0 248 0 235 0C222 0 209 0 196 0C183 0 170 0 156.8 0C143.7 0 130.3 0 117.2 0C104 0 91 0 78 0C65 0 52 0 39 0C26 0 13 0 6.5 0L0 0Z" fill="#fae072"></path><path d="M0 49L6.5 48.2C13 47.3 26 45.7 39 44.2C52 42.7 65 41.3 78 42.5C91 43.7 104 47.3 117.2 48.3C130.3 49.3 143.7 47.7 156.8 49C170 50.3 183 54.7 196 52.8C209 51 222 43 235 40.5C248 38 261 41 274 42C287 43 300 42 313 40.8C326 39.7 339 38.3 352 41.3C365 44.3 378 51.7 391 52.3C404 53 417 47 430.2 46.8C443.3 46.7 456.7 52.3 469.8 54.7C483 57 496 56 509 53.7C522 51.3 535 47.7 548 48.2C561 48.7 574 53.3 587 53C600 52.7 613 47.3 626 46.5C639 45.7 652 49.3 665 49.7C678 50 691 47 704 45.2C717 43.3 730 42.7 743.2 44.8C756.3 47 769.7 52 782.8 52.3C796 52.7 809 48.3 822 45.5C835 42.7 848 41.3 861 40C874 38.7 887 37.3 893.5 36.7L900 36L900 0L893.5 0C887 0 874 0 861 0C848 0 835 0 822 0C809 0 796 0 782.8 0C769.7 0 756.3 0 743.2 0C730 0 717 0 704 0C691 0 678 0 665 0C652 0 639 0 626 0C613 0 600 0 587 0C574 0 561 0 548 0C535 0 522 0 509 0C496 0 483 0 469.8 0C456.7 0 443.3 0 430.2 0C417 0 404 0 391 0C378 0 365 0 352 0C339 0 326 0 313 0C300 0 287 0 274 0C261 0 248 0 235 0C222 0 209 0 196 0C183 0 170 0 156.8 0C143.7 0 130.3 0 117.2 0C104 0 91 0 78 0C65 0 52 0 39 0C26 0 13 0 6.5 0L0 0Z" fill="#fbe68e"></path><path d="M0 33L6.5 33.2C13 33.3 26 33.7 39 34.2C52 34.7 65 35.3 78 37C91 38.7 104 41.3 117.2 43C130.3 44.7 143.7 45.3 156.8 45.8C170 46.3 183 46.7 196 44.2C209 41.7 222 36.3 235 32.7C248 29 261 27 274 26.5C287 26 300 27 313 27.7C326 28.3 339 28.7 352 31.5C365 34.3 378 39.7 391 41.7C404 43.7 417 42.3 430.2 41.8C443.3 41.3 456.7 41.7 469.8 41.3C483 41 496 40 509 39.8C522 39.7 535 40.3 548 41C561 41.7 574 42.3 587 42C600 41.7 613 40.3 626 39.7C639 39 652 39 665 40C678 41 691 43 704 42C717 41 730 37 743.2 37C756.3 37 769.7 41 782.8 42C796 43 809 41 822 39C835 37 848 35 861 33.5C874 32 887 31 893.5 30.5L900 30L900 0L893.5 0C887 0 874 0 861 0C848 0 835 0 822 0C809 0 796 0 782.8 0C769.7 0 756.3 0 743.2 0C730 0 717 0 704 0C691 0 678 0 665 0C652 0 639 0 626 0C613 0 600 0 587 0C574 0 561 0 548 0C535 0 522 0 509 0C496 0 483 0 469.8 0C456.7 0 443.3 0 430.2 0C417 0 404 0 391 0C378 0 365 0 352 0C339 0 326 0 313 0C300 0 287 0 274 0C261 0 248 0 235 0C222 0 209 0 196 0C183 0 170 0 156.8 0C143.7 0 130.3 0 117.2 0C104 0 91 0 78 0C65 0 52 0 39 0C26 0 13 0 6.5 0L0 0Z" fill="#fcecaa"></path><path d="M0 26L6.5 27.2C13 28.3 26 30.7 39 31.3C52 32 65 31 78 29.2C91 27.3 104 24.7 117.2 22.8C130.3 21 143.7 20 156.8 22C170 24 183 29 196 27.8C209 26.7 222 19.3 235 18.5C248 17.7 261 23.3 274 25C287 26.7 300 24.3 313 21.7C326 19 339 16 352 15.8C365 15.7 378 18.3 391 21.2C404 24 417 27 430.2 28.7C443.3 30.3 456.7 30.7 469.8 31.3C483 32 496 33 509 30C522 27 535 20 548 18.7C561 17.3 574 21.7 587 24.8C600 28 613 30 626 29C639 28 652 24 665 21.5C678 19 691 18 704 18.5C717 19 730 21 743.2 20.3C756.3 19.7 769.7 16.3 782.8 14.8C796 13.3 809 13.7 822 14.8C835 16 848 18 861 18C874 18 887 16 893.5 15L900 14L900 0L893.5 0C887 0 874 0 861 0C848 0 835 0 822 0C809 0 796 0 782.8 0C769.7 0 756.3 0 743.2 0C730 0 717 0 704 0C691 0 678 0 665 0C652 0 639 0 626 0C613 0 600 0 587 0C574 0 561 0 548 0C535 0 522 0 509 0C496 0 483 0 469.8 0C456.7 0 443.3 0 430.2 0C417 0 404 0 391 0C378 0 365 0 352 0C339 0 326 0 313 0C300 0 287 0 274 0C261 0 248 0 235 0C222 0 209 0 196 0C183 0 170 0 156.8 0C143.7 0 130.3 0 117.2 0C104 0 91 0 78 0C65 0 52 0 39 0C26 0 13 0 6.5 0L0 0Z" fill="#fdf2c5"></path><path d="M0 0L6.5 0.2C13 0.3 26 0.7 39 2.7C52 4.7 65 8.3 78 10C91 11.7 104 11.3 117.2 12.5C130.3 13.7 143.7 16.3 156.8 18.2C170 20 183 21 196 20C209 19 222 16 235 13.5C248 11 261 9 274 9C287 9 300 11 313 11.2C326 11.3 339 9.7 352 8.8C365 8 378 8 391 8.5C404 9 417 10 430.2 11C443.3 12 456.7 13 469.8 12.2C483 11.3 496 8.7 509 9C522 9.3 535 12.7 548 12.2C561 11.7 574 7.3 587 7C600 6.7 613 10.3 626 10C639 9.7 652 5.3 665 4.5C678 3.7 691 6.3 704 7.5C717 8.7 730 8.3 743.2 9C756.3 9.7 769.7 11.3 782.8 10.5C796 9.7 809 6.3 822 6.5C835 6.7 848 10.3 861 12.3C874 14.3 887 14.7 893.5 14.8L900 15L900 0L893.5 0C887 0 874 0 861 0C848 0 835 0 822 0C809 0 796 0 782.8 0C769.7 0 756.3 0 743.2 0C730 0 717 0 704 0C691 0 678 0 665 0C652 0 639 0 626 0C613 0 600 0 587 0C574 0 561 0 548 0C535 0 522 0 509 0C496 0 483 0 469.8 0C456.7 0 443.3 0 430.2 0C417 0 404 0 391 0C378 0 365 0 352 0C339 0 326 0 313 0C300 0 287 0 274 0C261 0 248 0 235 0C222 0 209 0 196 0C183 0 170 0 156.8 0C143.7 0 130.3 0 117.2 0C104 0 91 0 78 0C65 0 52 0 39 0C26 0 13 0 6.5 0L0 0Z" fill="#fef8e0"></path></svg>